<svg width="185" height="36" viewBox="0 0 185 36" fill="none" xmlns="http://www.w3.org/2000/svg">
<mask id="mask0_5078_51837" style="mask-type:luminance" maskUnits="userSpaceOnUse" x="0" y="4" width="80" height="28">
<path d="M0 4.71094H80V31.289H0V4.71094Z" fill="white"/>
</mask>
<g mask="url(#mask0_5078_51837)">
<path d="M45.4009 7.20135C45.4009 6.47045 45.5444 5.7741 45.8049 5.13623H0.0214844V9.03258H8.1278V30.8638H12.4707V9.03258H45.7145C45.5045 8.44492 45.3975 7.82541 45.3982 7.20135H45.4009Z" fill="white"/>
<path d="M17.3398 30.8664V12.469H21.5046V16.4557C21.8023 15.5441 22.2249 14.7627 22.7777 14.1168C23.3305 13.471 23.979 12.974 24.7259 12.6311C25.4727 12.2883 26.286 12.1155 27.1631 12.1155C27.3757 12.1155 27.5857 12.1262 27.7877 12.1501C27.9897 12.174 28.1385 12.2165 28.2342 12.2723V16.4185C28.104 16.36 27.9365 16.3202 27.7266 16.2936C27.5192 16.2697 27.3385 16.259 27.1844 16.259C26.2967 16.1873 25.5073 16.2245 24.8269 16.3654C24.1438 16.5089 23.5671 16.7481 23.102 17.0856C22.6315 17.4258 22.2807 17.8511 22.0415 18.3667C21.805 18.8823 21.6854 19.4856 21.6854 20.174V30.869H17.3425L17.3398 30.8664ZM35.4209 31.2252C34.2488 31.2252 33.1937 31.0099 32.2608 30.5767C31.3279 30.1434 30.5996 29.5215 30.0734 28.7082C29.5445 27.8949 29.2814 26.9089 29.2814 25.7448C29.2814 23.7169 30.0149 22.186 31.4794 21.1547C32.9438 20.1235 35.28 19.584 38.48 19.5361L41.2388 19.4644V18.2178C41.2388 17.2451 40.9518 16.4823 40.3751 15.9295C39.7983 15.3767 38.9079 15.1135 37.696 15.1374C36.795 15.1374 35.9764 15.3421 35.2402 15.7514C34.5066 16.1607 34.0176 16.8464 33.781 17.8059H30.0973C30.1691 16.5487 30.5332 15.4936 31.1923 14.6458C31.8515 13.7979 32.7551 13.1627 33.906 12.7428C35.0568 12.3202 36.3857 12.1102 37.8927 12.1102C39.6495 12.1102 41.0794 12.3414 42.1797 12.8039C43.2827 13.2664 44.096 13.9335 44.6169 14.8079C45.1378 15.6796 45.3983 16.7321 45.3983 17.968V30.869H41.7518L41.3957 27.56C40.7312 28.9501 39.894 29.9069 38.8867 30.4331C37.8794 30.962 36.7232 31.2252 35.4156 31.2252H35.4209ZM36.8269 28.2883C37.3611 28.2883 37.89 28.1899 38.4109 27.9933C38.9319 27.7966 39.405 27.5308 39.8249 27.1933C40.2475 26.8531 40.5824 26.481 40.8402 26.0637C41.0953 25.6491 41.2282 25.2159 41.2415 24.764V21.8617L38.9824 21.8963C37.8661 21.9069 36.8907 22.0291 36.0561 22.2604C35.2189 22.4916 34.5704 22.8504 34.108 23.3368C33.6455 23.8232 33.4143 24.4743 33.4143 25.2956C33.4143 26.2311 33.7412 26.9647 34.3923 27.4936C35.0435 28.0225 35.8568 28.2856 36.8322 28.2856L36.8269 28.2883ZM48.7445 30.8185V12.4185H52.8907V30.8185H48.7445ZM61.5153 31.0869C60.3272 31.0869 59.3784 30.9381 58.6687 30.6404C57.9565 30.3428 57.4222 29.9468 57.0661 29.4471C56.7099 28.9501 56.4761 28.3866 56.3618 27.7673C56.2475 27.1428 56.1943 26.5075 56.1943 25.8537V5.13612H60.4468V25.3541C60.4468 26.1487 60.6116 26.7654 60.9359 27.2039C61.2628 27.6424 61.7943 27.8976 62.5279 27.9693L63.4528 28.0039V30.7281C63.1339 30.8238 62.807 30.9062 62.4747 30.978C62.1425 31.0497 61.8236 31.0843 61.5153 31.0843V31.0869ZM72.3352 31.1747C71.0541 31.1747 69.8422 30.97 68.6967 30.5607C67.5511 30.1514 66.5917 29.5082 65.8156 28.6285C65.0395 27.7514 64.5505 26.6192 64.3485 25.2291H68.1571C68.3219 25.9042 68.6169 26.457 69.0395 26.8823C69.4621 27.3102 69.9591 27.6212 70.5359 27.8152C71.1126 28.0119 71.7079 28.1102 72.3219 28.1102C73.4249 28.1102 74.3153 27.9215 74.9903 27.5414C75.6654 27.1614 76.0056 26.574 76.0056 25.7793C76.0056 25.1972 75.8196 24.7374 75.4475 24.3893C75.0727 24.0464 74.4668 23.786 73.6216 23.6079L70.1345 22.8079C68.5691 22.465 67.3173 21.8963 66.379 21.0989C65.4435 20.3042 64.9677 19.1826 64.9545 17.7368C64.9438 16.6471 65.2149 15.6717 65.7731 14.8185C66.3312 13.9654 67.1631 13.2929 68.2634 12.7986C69.3664 12.3069 70.7246 12.0597 72.3379 12.0597C74.4854 12.0597 76.2076 12.5381 77.5073 13.4923C78.807 14.4464 79.4741 15.8072 79.5113 17.5773H75.8275C75.6973 16.7826 75.3226 16.1634 74.706 15.7168C74.0893 15.2703 73.2893 15.0497 72.3033 15.0497C71.3173 15.0497 70.4482 15.2464 69.7943 15.6371C69.1432 16.0278 68.8163 16.6285 68.8163 17.4338C68.8163 17.9919 69.0634 18.4305 69.5551 18.7521C70.0468 19.071 70.7963 19.3448 71.8063 19.5707L75.1153 20.3707C76.0641 20.6072 76.8402 20.9288 77.4462 21.3301C78.0495 21.7341 78.5226 22.1753 78.8601 22.6564C79.2003 23.1374 79.4369 23.6291 79.5724 24.1341C79.708 24.6391 79.7771 25.1042 79.7771 25.5295C79.7771 26.7175 79.4714 27.7275 78.8601 28.5647C78.2488 29.4019 77.3877 30.0424 76.2794 30.4969C75.1711 30.9461 73.8581 31.172 72.3379 31.172V31.18L72.3352 31.1747ZM50.8681 9.62781C52.2076 9.62781 53.2947 8.54077 53.2947 7.20124C53.2947 5.8617 52.2076 4.77466 50.8681 4.77466C49.5285 4.77466 48.4415 5.8617 48.4415 7.20124C48.4415 8.54077 49.5285 9.62781 50.8681 9.62781Z" fill="white"/>
</g>
<g clip-path="url(#clip0_5078_51837)">
<path d="M98.823 29.4241C98.609 29.4255 98.3953 29.4061 98.185 29.3661C98.0385 29.3437 97.895 29.3052 97.757 29.2511L98.133 27.9711C98.419 28.0478 98.6733 28.0811 98.896 28.0711C99.1168 28.0627 99.3268 27.9733 99.486 27.8201C99.66 27.6628 99.8133 27.4068 99.946 27.0521L100.139 26.5191L97.203 18.3901H98.875L100.907 24.6171H100.991L103.023 18.3901H104.7L101.393 27.4861C101.259 27.8699 101.061 28.2283 100.808 28.5461C100.582 28.829 100.292 29.0544 99.962 29.2041C99.6015 29.3563 99.2132 29.4312 98.822 29.4241M89 26.4151V15.7151H90.562V19.6911H90.656C90.746 19.5244 90.8767 19.3311 91.048 19.1111C91.218 18.8911 91.4547 18.6994 91.758 18.5361C92.0613 18.3694 92.462 18.2861 92.96 18.2861C93.608 18.2861 94.186 18.4494 94.694 18.7761C95.2033 19.1041 95.6023 19.5761 95.891 20.1921C96.183 20.8094 96.3293 21.5514 96.33 22.4181C96.33 23.2848 96.1853 24.0281 95.896 24.6481C95.6073 25.2654 95.2103 25.7411 94.705 26.0751C94.1901 26.4079 93.588 26.5805 92.975 26.5711C92.4883 26.5711 92.0897 26.4894 91.779 26.3261C91.5027 26.1849 91.2578 25.9894 91.059 25.7511C90.9091 25.5673 90.7743 25.3716 90.656 25.1661H90.526V26.4151H89ZM90.53 22.4021C90.53 22.9661 90.612 23.4608 90.776 23.8861C90.94 24.3114 91.1767 24.6441 91.486 24.8841C91.796 25.1208 92.176 25.2391 92.626 25.2391C93.092 25.2391 93.482 25.1158 93.796 24.8691C94.1093 24.6178 94.346 24.2778 94.506 23.8491C94.6765 23.3861 94.76 22.8955 94.752 22.4021C94.752 21.8721 94.672 21.3968 94.512 20.9761C94.3746 20.5829 94.1284 20.2368 93.802 19.9781C93.488 19.7341 93.096 19.6121 92.626 19.6121C92.1727 19.6121 91.7893 19.7288 91.476 19.9621C91.166 20.1961 90.931 20.5218 90.771 20.9391C90.611 21.3571 90.531 21.8448 90.531 22.4021M119.645 15.9181L115.776 18.1581V25.1481L113.642 26.3951L111.494 25.1471V22.6501L113.642 21.4141L115.022 22.2211V20.2031L113.63 19.4061L109.763 21.6711V26.1511L113.643 28.4041L117.51 26.1511V19.1621L119.658 17.9141L121.804 19.1621V21.6461L119.658 22.9061L118.265 22.0921V24.1001L119.645 24.9031L123.55 22.6631V18.1581L119.645 15.9181Z" fill="white"/>
<path fill-rule="evenodd" clip-rule="evenodd" d="M146.01 26.4909H148.198V14.4009H146.01V26.4909ZM131.943 17.8969C132.98 17.8969 133.839 18.3162 134.52 19.1549C135.2 19.9935 135.54 21.0339 135.54 22.2759C135.539 23.5179 135.199 24.5582 134.52 25.3969C133.838 26.2362 132.979 26.6559 131.943 26.6559C131.207 26.6559 130.57 26.4269 130.031 25.9689C129.501 25.5009 129.111 24.8692 128.863 24.0739V29.7589H126.675V18.0599H128.863V20.4779C129.111 19.6825 129.5 19.0559 130.031 18.5979C130.559 18.1351 131.241 17.8852 131.943 17.8969ZM131.147 24.6459C131.741 24.6459 132.244 24.4225 132.654 23.9759C133.064 23.5179 133.269 22.9512 133.27 22.2759C133.27 21.6009 133.065 21.0559 132.654 20.6089C132.244 20.1515 131.741 19.9225 131.147 19.9219C130.487 19.9219 129.942 20.1452 129.51 20.5919C129.078 21.0385 128.862 21.5995 128.862 22.2749C128.862 22.9502 129.078 23.5169 129.51 23.9749C129.942 24.4215 130.487 24.6459 131.147 24.6459ZM136.121 22.2749C136.121 23.5169 136.547 24.5572 137.401 25.3959C138.255 26.2352 139.32 26.6549 140.595 26.6549C141.87 26.6549 142.935 26.2352 143.789 25.3959C144.643 24.5565 145.069 23.5165 145.069 22.2759C145.069 21.0332 144.642 19.9925 143.789 19.1539C142.935 18.3152 141.871 17.8959 140.595 17.8959C139.319 17.8959 138.255 18.3152 137.402 19.1539C136.548 19.9925 136.122 21.0329 136.122 22.2749M139.024 23.9749C138.602 23.5169 138.392 22.9502 138.392 22.2749C138.392 21.5999 138.602 21.0549 139.024 20.6079C139.221 20.3866 139.463 20.2106 139.734 20.092C140.006 19.9734 140.3 19.915 140.596 19.9209C141.222 19.9209 141.747 20.1442 142.169 20.5909C142.591 21.0375 142.801 21.5985 142.801 22.2739C142.8 22.9492 142.589 23.5159 142.169 23.9739C141.747 24.4205 141.222 24.6439 140.596 24.6439C140.301 24.6499 140.009 24.5933 139.738 24.4778C139.467 24.3623 139.223 24.1905 139.024 23.9739M168.414 25.3949C167.56 24.5562 167.134 23.5162 167.134 22.2749C167.134 21.0322 167.56 19.9915 168.414 19.1529C169.268 18.3142 170.333 17.8949 171.609 17.8949C172.884 17.8949 173.948 18.3149 174.8 19.1549C175.653 19.9942 176.08 21.0345 176.08 22.2759C176.08 23.5172 175.653 24.5575 174.8 25.3969C173.946 26.2362 172.882 26.6559 171.607 26.6559C170.331 26.6559 169.267 26.2362 168.413 25.3969M169.402 22.2769C169.402 22.9515 169.612 23.5175 170.033 23.9749C170.455 24.4215 170.979 24.6449 171.606 24.6449C172.232 24.6449 172.757 24.4215 173.179 23.9749C173.6 23.5182 173.811 22.9519 173.811 22.2759C173.811 21.5999 173.6 21.0392 173.179 20.5939C172.979 20.3771 172.736 20.2053 172.464 20.0898C172.193 19.9743 171.901 19.9177 171.606 19.9239C171.31 19.9178 171.016 19.9759 170.744 20.0944C170.473 20.2128 170.23 20.3887 170.033 20.6099C169.611 21.0565 169.401 21.6125 169.401 22.2779L169.402 22.2769ZM181.905 17.8969C182.835 17.8969 183.58 18.2235 184.141 18.8769C184.714 19.5302 185 20.3635 185 21.3769V26.4899H182.812V21.7679C182.812 21.2225 182.639 20.7759 182.292 20.4279C181.947 20.0792 181.515 19.9049 180.996 19.9049C180.412 19.9049 179.936 20.0792 179.57 20.4279C179.203 20.7759 179.02 21.2225 179.02 21.7679V26.4899H176.83V18.0599H179.018V20.2169C179.234 19.4982 179.597 18.9319 180.105 18.5179C180.614 18.1073 181.251 17.887 181.905 17.8969ZM153.455 24.2429L155.691 18.0679H157.912L153.31 29.7669H151.09L152.257 26.7929L148.837 18.0679H151.203L153.455 24.2429ZM164.135 18.0599V20.1729C163.679 18.7939 162.553 18.0599 161.055 18.0599C158.794 18.0599 157.456 20.0509 157.456 22.1449C157.456 24.2389 158.784 26.3929 161.056 26.3929C162.553 26.3929 163.679 25.3039 164.135 23.9259V25.5429C164.135 26.2295 163.913 26.7959 163.47 27.2419C163.026 27.6885 162.486 27.9119 161.85 27.9119C160.984 27.9119 160.341 27.4762 159.92 26.6049L157.96 27.6499C158.324 28.3327 158.867 28.9032 159.532 29.2999C160.213 29.7139 160.985 29.9209 161.849 29.9209C163.124 29.9215 164.189 29.5022 165.043 28.6629C165.897 27.8235 166.323 26.7832 166.323 25.5419V18.0599H164.135ZM163.503 23.7469C163.081 24.1715 162.551 24.3839 161.915 24.3839C161.278 24.3839 160.78 24.1719 160.359 23.7469C159.937 23.3115 159.727 22.7782 159.727 22.1469C159.727 21.5142 159.937 20.9855 160.359 20.5609C160.78 20.1362 161.299 19.9239 161.915 19.9239C162.532 19.9239 163.083 20.1359 163.503 20.5609C163.925 20.9742 164.135 21.5025 164.135 22.1459C164.135 22.7892 163.924 23.3235 163.503 23.7469Z" fill="white"/>
</g>
<defs>
<clipPath id="clip0_5078_51837">
<rect width="96" height="16" fill="white" transform="translate(89 14)"/>
</clipPath>
</defs>
</svg>
