<svg xmlns="http://www.w3.org/2000/svg" fill="none" viewBox="0 0 188 62">
  <g fill="#fff" clip-path="url(#a)">
    <path d="M106.692 5.81c0-1.706.337-3.33.949-4.818H.05v9.09H19.1v50.926h10.205V10.081h78.124a12.588 12.588 0 0 1-.744-4.272h.007Z"/>
    <path d="M40.748 61.014V18.098h9.787v9.3c.7-2.127 1.693-3.95 2.992-5.456 1.299-1.507 2.823-2.666 4.578-3.466 1.755-.8 3.666-1.203 5.728-1.203.5 0 .993.025 1.467.08.475.057.825.156 1.05.286v9.672c-.306-.136-.7-.23-1.193-.291-.487-.056-.912-.081-1.274-.081-2.087-.167-3.942-.08-5.54.248-1.606.335-2.961.893-4.054 1.68a7.555 7.555 0 0 0-2.492 2.989c-.556 1.202-.837 2.61-.837 4.216V61.02H40.754l-.006-.006ZM83.238 61.851c-2.754 0-5.234-.502-7.426-1.513-2.192-1.01-3.904-2.461-5.14-4.358-1.243-1.897-1.861-4.198-1.861-6.913 0-4.73 1.723-8.302 5.165-10.708 3.441-2.405 8.931-3.664 16.451-3.775l6.484-.168v-2.908c0-2.269-.675-4.048-2.03-5.338-1.356-1.29-3.448-1.903-6.296-1.847-2.117 0-4.041.477-5.771 1.432-1.724.955-2.873 2.554-3.43 4.792h-8.656c.169-2.932 1.024-5.394 2.573-7.371 1.55-1.978 3.673-3.46 6.377-4.44 2.705-.985 5.828-1.475 9.369-1.475 4.129 0 7.489.54 10.075 1.618 2.592 1.079 4.503 2.635 5.727 4.675 1.224 2.033 1.836 4.489 1.836 7.372V61.02h-8.569l-.837-7.719c-1.561 3.243-3.529 5.475-5.896 6.703-2.367 1.233-5.084 1.847-8.157 1.847h.012Zm3.305-6.85c1.255 0 2.498-.23 3.722-.689a12.096 12.096 0 0 0 3.323-1.866c.993-.794 1.78-1.662 2.386-2.635.6-.967.912-1.978.943-3.032v-6.77l-5.31.08c-2.622.025-4.915.31-6.876.85-1.967.539-3.491 1.376-4.578 2.51-1.087 1.135-1.63 2.654-1.63 4.57 0 2.182.768 3.894 2.298 5.127 1.53 1.234 3.442 1.848 5.734 1.848l-.013.006ZM114.549 60.903V17.98h9.743v42.923h-9.743ZM144.56 61.529c-2.792 0-5.022-.347-6.689-1.042-1.674-.694-2.929-1.618-3.766-2.784a9.63 9.63 0 0 1-1.656-3.918 24.574 24.574 0 0 1-.393-4.464V.992h9.993v47.163c0 1.854.388 3.293 1.15 4.316.768 1.023 2.017 1.618 3.741 1.785l2.173.08v6.356a30.25 30.25 0 0 1-2.298.583c-.781.167-1.53.248-2.255.248v.006ZM169.987 61.733c-3.011 0-5.859-.477-8.551-1.432s-4.946-2.455-6.77-4.507c-1.824-2.046-2.973-4.687-3.448-7.93h8.951c.387 1.575 1.08 2.864 2.073 3.856a8.828 8.828 0 0 0 3.517 2.177c1.355.458 2.754.688 4.197.688 2.592 0 4.684-.44 6.271-1.327 1.586-.887 2.385-2.257 2.385-4.11 0-1.358-.437-2.431-1.311-3.243-.881-.8-2.305-1.408-4.291-1.823l-8.195-1.866c-3.678-.8-6.62-2.127-8.825-3.987-2.199-1.854-3.317-4.47-3.348-7.843-.025-2.542.612-4.817 1.924-6.807 1.312-1.99 3.267-3.56 5.852-4.712 2.592-1.147 5.784-1.724 9.575-1.724 5.047 0 9.094 1.116 12.148 3.342 3.055 2.226 4.622 5.4 4.71 9.53h-8.657c-.306-1.855-1.187-3.3-2.636-4.34-1.449-1.042-3.329-1.557-5.646-1.557-2.317 0-4.36.459-5.896 1.37-1.53.912-2.299 2.313-2.299 4.191 0 1.302.581 2.325 1.737 3.076 1.155.744 2.917 1.382 5.29 1.91l7.776 1.865c2.23.552 4.054 1.302 5.478 2.239 1.418.942 2.529 1.971 3.323 3.093.799 1.123 1.355 2.27 1.673 3.448.319 1.178.481 2.263.481 3.255 0 2.771-.718 5.127-2.154 7.08-1.437 1.953-3.461 3.447-6.065 4.507-2.605 1.048-5.69 1.575-9.263 1.575v.019l-.006-.013ZM119.539 11.47c3.148 0 5.703-2.536 5.703-5.66 0-3.125-2.555-5.661-5.703-5.661s-5.702 2.536-5.702 5.66c0 3.125 2.554 5.661 5.702 5.661Z"/>
  </g>
  <defs>
    <clipPath id="a">
      <path fill="#fff" d="M0 0h188v62H0z"/>
    </clipPath>
  </defs>
</svg>
