<svg width="995" height="996" viewBox="0 0 995 996" fill="none" xmlns="http://www.w3.org/2000/svg">
<rect width="995" height="996" fill="white"/>
<g clip-path="url(#clip0_381_3596)">
<mask id="path-3-inside-1_381_3596" fill="white">
<path d="M8.5 83.625C67.5945 83.625 115.5 131.531 115.5 190.625V191.625H83.5V190.625C83.5 149.204 49.9214 115.625 8.5 115.625H7.5V83.625H8.5ZM115.5 8.625C115.5 50.0464 149.079 83.625 190.5 83.625H191.5V115.625H190.5C131.406 115.625 83.5 67.7195 83.5 8.625V7.625H115.5V8.625Z"/>
</mask>
<path d="M115.5 191.625V193.625H117.5V191.625H115.5ZM83.5 191.625H81.5V193.625H83.5V191.625ZM7.5 115.625H5.5V117.625H7.5V115.625ZM7.5 83.625V81.625H5.5V83.625H7.5ZM115.5 8.625H117.5H115.5ZM190.5 83.625V85.625V83.625ZM191.5 83.625H193.5V81.625H191.5V83.625ZM191.5 115.625V117.625H193.5V115.625H191.5ZM190.5 115.625V117.625V115.625ZM83.5 8.625H85.5H83.5ZM83.5 7.625V5.625H81.5V7.625H83.5ZM115.5 7.625H117.5V5.625H115.5V7.625ZM8.5 83.625V85.625C66.4899 85.625 113.5 132.635 113.5 190.625H115.5H117.5C117.5 130.426 68.699 81.625 8.5 81.625V83.625ZM115.5 190.625H113.5V191.625H115.5H117.5V190.625H115.5ZM115.5 191.625V189.625H83.5V191.625V193.625H115.5V191.625ZM83.5 191.625H85.5V190.625H83.5H81.5V191.625H83.5ZM83.5 190.625H85.5C85.5 148.099 51.0259 113.625 8.5 113.625V115.625V117.625C48.8168 117.625 81.5 150.308 81.5 190.625H83.5ZM8.5 115.625V113.625H7.5V115.625V117.625H8.5V115.625ZM7.5 115.625H9.5V83.625H7.5H5.5V115.625H7.5ZM7.5 83.625V85.625H8.5V83.625V81.625H7.5V83.625ZM115.5 8.625H113.5C113.5 51.1509 147.974 85.625 190.5 85.625V83.625V81.625C150.183 81.625 117.5 48.9418 117.5 8.625H115.5ZM190.5 83.625V85.625H191.5V83.625V81.625H190.5V83.625ZM191.5 83.625H189.5V115.625H191.5H193.5V83.625H191.5ZM191.5 115.625V113.625H190.5V115.625V117.625H191.5V115.625ZM190.5 115.625V113.625C132.51 113.625 85.5 66.6149 85.5 8.625H83.5H81.5C81.5 68.824 130.301 117.625 190.5 117.625V115.625ZM83.5 8.625H85.5V7.625H83.5H81.5V8.625H83.5ZM83.5 7.625V9.625H115.5V7.625V5.625H83.5V7.625ZM115.5 7.625H113.5V8.625H115.5H117.5V7.625H115.5Z" fill="#DBEAFE" mask="url(#path-3-inside-1_381_3596)"/>
</g>
<rect x="8.5" y="8.625" width="182" height="182" rx="30" stroke="#DBEAFE" stroke-width="2"/>
<g clip-path="url(#clip1_381_3596)">
<mask id="path-7-inside-2_381_3596" fill="white">
<path d="M207.5 83.625C266.594 83.625 314.5 131.531 314.5 190.625V191.625H282.5V190.625C282.5 149.204 248.921 115.625 207.5 115.625H206.5V83.625H207.5ZM314.5 8.625C314.5 50.0464 348.079 83.625 389.5 83.625H390.5V115.625H389.5C330.406 115.625 282.5 67.7195 282.5 8.625V7.625H314.5V8.625Z"/>
</mask>
<path d="M314.5 191.625V193.625H316.5V191.625H314.5ZM282.5 191.625H280.5V193.625H282.5V191.625ZM206.5 115.625H204.5V117.625H206.5V115.625ZM206.5 83.625V81.625H204.5V83.625H206.5ZM314.5 8.625H316.5H314.5ZM389.5 83.625V85.625V83.625ZM390.5 83.625H392.5V81.625H390.5V83.625ZM390.5 115.625V117.625H392.5V115.625H390.5ZM389.5 115.625V117.625V115.625ZM282.5 8.625H284.5H282.5ZM282.5 7.625V5.625H280.5V7.625H282.5ZM314.5 7.625H316.5V5.625H314.5V7.625ZM207.5 83.625V85.625C265.49 85.625 312.5 132.635 312.5 190.625H314.5H316.5C316.5 130.426 267.699 81.625 207.5 81.625V83.625ZM314.5 190.625H312.5V191.625H314.5H316.5V190.625H314.5ZM314.5 191.625V189.625H282.5V191.625V193.625H314.5V191.625ZM282.5 191.625H284.5V190.625H282.5H280.5V191.625H282.5ZM282.5 190.625H284.5C284.5 148.099 250.026 113.625 207.5 113.625V115.625V117.625C247.817 117.625 280.5 150.308 280.5 190.625H282.5ZM207.5 115.625V113.625H206.5V115.625V117.625H207.5V115.625ZM206.5 115.625H208.5V83.625H206.5H204.5V115.625H206.5ZM206.5 83.625V85.625H207.5V83.625V81.625H206.5V83.625ZM314.5 8.625H312.5C312.5 51.1509 346.974 85.625 389.5 85.625V83.625V81.625C349.183 81.625 316.5 48.9418 316.5 8.625H314.5ZM389.5 83.625V85.625H390.5V83.625V81.625H389.5V83.625ZM390.5 83.625H388.5V115.625H390.5H392.5V83.625H390.5ZM390.5 115.625V113.625H389.5V115.625V117.625H390.5V115.625ZM389.5 115.625V113.625C331.51 113.625 284.5 66.6149 284.5 8.625H282.5H280.5C280.5 68.824 329.301 117.625 389.5 117.625V115.625ZM282.5 8.625H284.5V7.625H282.5H280.5V8.625H282.5ZM282.5 7.625V9.625H314.5V7.625V5.625H282.5V7.625ZM314.5 7.625H312.5V8.625H314.5H316.5V7.625H314.5Z" fill="#DBEAFE" mask="url(#path-7-inside-2_381_3596)"/>
</g>
<rect x="207.5" y="8.625" width="182" height="182" rx="30" stroke="#DBEAFE" stroke-width="2"/>
<g clip-path="url(#clip2_381_3596)">
<mask id="path-11-inside-3_381_3596" fill="white">
<path d="M406.5 83.625C465.594 83.625 513.5 131.531 513.5 190.625V191.625H481.5V190.625C481.5 149.204 447.921 115.625 406.5 115.625H405.5V83.625H406.5ZM513.5 8.625C513.5 50.0464 547.079 83.625 588.5 83.625H589.5V115.625H588.5C529.406 115.625 481.5 67.7195 481.5 8.625V7.625H513.5V8.625Z"/>
</mask>
<path d="M513.5 191.625V193.625H515.5V191.625H513.5ZM481.5 191.625H479.5V193.625H481.5V191.625ZM405.5 115.625H403.5V117.625H405.5V115.625ZM405.5 83.625V81.625H403.5V83.625H405.5ZM513.5 8.625H515.5H513.5ZM588.5 83.625V85.625V83.625ZM589.5 83.625H591.5V81.625H589.5V83.625ZM589.5 115.625V117.625H591.5V115.625H589.5ZM588.5 115.625V117.625V115.625ZM481.5 8.625H483.5H481.5ZM481.5 7.625V5.625H479.5V7.625H481.5ZM513.5 7.625H515.5V5.625H513.5V7.625ZM406.5 83.625V85.625C464.49 85.625 511.5 132.635 511.5 190.625H513.5H515.5C515.5 130.426 466.699 81.625 406.5 81.625V83.625ZM513.5 190.625H511.5V191.625H513.5H515.5V190.625H513.5ZM513.5 191.625V189.625H481.5V191.625V193.625H513.5V191.625ZM481.5 191.625H483.5V190.625H481.5H479.5V191.625H481.5ZM481.5 190.625H483.5C483.5 148.099 449.026 113.625 406.5 113.625V115.625V117.625C446.817 117.625 479.5 150.308 479.5 190.625H481.5ZM406.5 115.625V113.625H405.5V115.625V117.625H406.5V115.625ZM405.5 115.625H407.5V83.625H405.5H403.5V115.625H405.5ZM405.5 83.625V85.625H406.5V83.625V81.625H405.5V83.625ZM513.5 8.625H511.5C511.5 51.1509 545.974 85.625 588.5 85.625V83.625V81.625C548.183 81.625 515.5 48.9418 515.5 8.625H513.5ZM588.5 83.625V85.625H589.5V83.625V81.625H588.5V83.625ZM589.5 83.625H587.5V115.625H589.5H591.5V83.625H589.5ZM589.5 115.625V113.625H588.5V115.625V117.625H589.5V115.625ZM588.5 115.625V113.625C530.51 113.625 483.5 66.6149 483.5 8.625H481.5H479.5C479.5 68.824 528.301 117.625 588.5 117.625V115.625ZM481.5 8.625H483.5V7.625H481.5H479.5V8.625H481.5ZM481.5 7.625V9.625H513.5V7.625V5.625H481.5V7.625ZM513.5 7.625H511.5V8.625H513.5H515.5V7.625H513.5Z" fill="#DBEAFE" mask="url(#path-11-inside-3_381_3596)"/>
</g>
<rect x="406.5" y="8.625" width="182" height="182" rx="30" stroke="#DBEAFE" stroke-width="2"/>
<g clip-path="url(#clip3_381_3596)">
<mask id="path-15-inside-4_381_3596" fill="white">
<path d="M712.5 7.625V8.625C712.5 50.0464 746.079 83.625 787.5 83.625H788.5V115.625H787.5C749.067 115.625 715.367 95.3612 696.5 64.9355C677.633 95.3612 643.933 115.625 605.5 115.625H604.5V83.625H605.5C646.921 83.625 680.5 50.0464 680.5 8.625V7.625H712.5Z"/>
</mask>
<path d="M712.5 7.625H714.5V5.625H712.5V7.625ZM712.5 8.625L714.5 8.625V8.625H712.5ZM787.5 83.625V85.625V83.625ZM788.5 83.625H790.5V81.625H788.5V83.625ZM788.5 115.625V117.625H790.5V115.625H788.5ZM787.5 115.625V117.625V115.625ZM696.5 64.9355L698.2 63.8815L696.5 61.1405L694.8 63.8815L696.5 64.9355ZM605.5 115.625L605.5 113.625H605.5V115.625ZM604.5 115.625H602.5V117.625H604.5V115.625ZM604.5 83.625V81.625H602.5V83.625H604.5ZM605.5 83.625L605.5 81.625H605.5V83.625ZM680.5 8.625L682.5 8.625V8.625H680.5ZM680.5 7.625V5.625H678.5V7.625H680.5ZM712.5 7.625H710.5V8.625H712.5H714.5V7.625H712.5ZM712.5 8.625L710.5 8.625C710.5 51.1509 744.974 85.625 787.5 85.625V83.625V81.625C747.183 81.625 714.5 48.9418 714.5 8.625L712.5 8.625ZM787.5 83.625V85.625H788.5V83.625V81.625H787.5V83.625ZM788.5 83.625H786.5V115.625H788.5H790.5V83.625H788.5ZM788.5 115.625V113.625H787.5V115.625V117.625H788.5V115.625ZM787.5 115.625V113.625C749.787 113.625 716.718 93.7438 698.2 63.8815L696.5 64.9355L694.8 65.9896C714.017 96.9787 748.346 117.625 787.5 117.625V115.625ZM696.5 64.9355L694.8 63.8815C676.282 93.7438 643.213 113.625 605.5 113.625L605.5 115.625L605.5 117.625C644.654 117.625 678.983 96.9787 698.2 65.9896L696.5 64.9355ZM605.5 115.625V113.625H604.5V115.625V117.625H605.5V115.625ZM604.5 115.625H606.5V83.625H604.5H602.5V115.625H604.5ZM604.5 83.625V85.625H605.5V83.625V81.625H604.5V83.625ZM605.5 83.625L605.5 85.625C648.026 85.625 682.5 51.1509 682.5 8.625L680.5 8.625L678.5 8.625C678.5 48.9418 645.817 81.625 605.5 81.625L605.5 83.625ZM680.5 8.625H682.5V7.625H680.5H678.5V8.625H680.5ZM680.5 7.625V9.625H712.5V7.625V5.625H680.5V7.625Z" fill="#DBEAFE" mask="url(#path-15-inside-4_381_3596)"/>
</g>
<rect x="605.5" y="8.625" width="182" height="182" rx="30" stroke="#DBEAFE" stroke-width="2"/>
<rect x="207.5" y="606.125" width="182" height="182" rx="30" stroke="#DBEAFE" stroke-width="2"/>
<circle cx="298.5" cy="696.875" r="60.8464" stroke="#DBEAFE" stroke-width="2"/>
<path d="M298.5 666.596L317.197 696.875L298.5 727.155L279.803 696.875L298.5 666.596Z" stroke="#DBEAFE" stroke-width="2"/>
<g clip-path="url(#clip4_381_3596)">
<mask id="path-22-inside-5_381_3596" fill="white">
<path d="M804.5 681.125C863.594 681.125 911.5 729.031 911.5 788.125V789.125H879.5V788.125C879.5 746.704 845.921 713.125 804.5 713.125H803.5V681.125H804.5ZM911.5 606.125C911.5 647.546 945.079 681.125 986.5 681.125H987.5V713.125H986.5C927.406 713.125 879.5 665.219 879.5 606.125V605.125H911.5V606.125Z"/>
</mask>
<path d="M911.5 789.125V791.125H913.5V789.125H911.5ZM879.5 789.125H877.5V791.125H879.5V789.125ZM803.5 713.125H801.5V715.125H803.5V713.125ZM803.5 681.125V679.125H801.5V681.125H803.5ZM911.5 606.125H913.5H911.5ZM986.5 681.125V683.125V681.125ZM987.5 681.125H989.5V679.125H987.5V681.125ZM987.5 713.125V715.125H989.5V713.125H987.5ZM986.5 713.125V715.125V713.125ZM879.5 606.125H881.5H879.5ZM879.5 605.125V603.125H877.5V605.125H879.5ZM911.5 605.125H913.5V603.125H911.5V605.125ZM804.5 681.125V683.125C862.49 683.125 909.5 730.135 909.5 788.125H911.5H913.5C913.5 727.926 864.699 679.125 804.5 679.125V681.125ZM911.5 788.125H909.5V789.125H911.5H913.5V788.125H911.5ZM911.5 789.125V787.125H879.5V789.125V791.125H911.5V789.125ZM879.5 789.125H881.5V788.125H879.5H877.5V789.125H879.5ZM879.5 788.125H881.5C881.5 745.599 847.026 711.125 804.5 711.125V713.125V715.125C844.817 715.125 877.5 747.808 877.5 788.125H879.5ZM804.5 713.125V711.125H803.5V713.125V715.125H804.5V713.125ZM803.5 713.125H805.5V681.125H803.5H801.5V713.125H803.5ZM803.5 681.125V683.125H804.5V681.125V679.125H803.5V681.125ZM911.5 606.125H909.5C909.5 648.651 943.974 683.125 986.5 683.125V681.125V679.125C946.183 679.125 913.5 646.442 913.5 606.125H911.5ZM986.5 681.125V683.125H987.5V681.125V679.125H986.5V681.125ZM987.5 681.125H985.5V713.125H987.5H989.5V681.125H987.5ZM987.5 713.125V711.125H986.5V713.125V715.125H987.5V713.125ZM986.5 713.125V711.125C928.51 711.125 881.5 664.115 881.5 606.125H879.5H877.5C877.5 666.324 926.301 715.125 986.5 715.125V713.125ZM879.5 606.125H881.5V605.125H879.5H877.5V606.125H879.5ZM879.5 605.125V607.125H911.5V605.125V603.125H879.5V605.125ZM911.5 605.125H909.5V606.125H911.5H913.5V605.125H911.5Z" fill="#DBEAFE" mask="url(#path-22-inside-5_381_3596)"/>
</g>
<rect x="804.5" y="606.125" width="182" height="182" rx="30" stroke="#DBEAFE" stroke-width="2"/>
<g clip-path="url(#clip5_381_3596)">
<mask id="path-26-inside-6_381_3596" fill="white">
<path d="M680.5 788.125C680.5 729.031 728.406 681.125 787.5 681.125L788.5 681.125L788.5 713.125L787.5 713.125C746.079 713.125 712.5 746.704 712.5 788.125L712.5 789.125L680.5 789.125L680.5 788.125ZM605.5 681.125C646.921 681.125 680.5 647.546 680.5 606.125L680.5 605.125L712.5 605.125L712.5 606.125C712.5 665.219 664.594 713.125 605.5 713.125L604.5 713.125L604.5 681.125L605.5 681.125Z"/>
</mask>
<path d="M788.5 681.125L790.5 681.125L790.5 679.125L788.5 679.125L788.5 681.125ZM788.5 713.125L788.5 715.125L790.5 715.125L790.5 713.125L788.5 713.125ZM712.5 789.125L712.5 791.125L714.5 791.125L714.5 789.125L712.5 789.125ZM680.5 789.125L678.5 789.125L678.5 791.125L680.5 791.125L680.5 789.125ZM605.5 681.125L605.5 679.125L605.5 681.125ZM680.5 606.125L682.5 606.125L680.5 606.125ZM680.5 605.125L680.5 603.125L678.5 603.125L678.5 605.125L680.5 605.125ZM712.5 605.125L714.5 605.125L714.5 603.125L712.5 603.125L712.5 605.125ZM712.5 606.125L714.5 606.125L712.5 606.125ZM605.5 713.125L605.5 711.125L605.5 713.125ZM604.5 713.125L602.5 713.125L602.5 715.125L604.5 715.125L604.5 713.125ZM604.5 681.125L604.5 679.125L602.5 679.125L602.5 681.125L604.5 681.125ZM680.5 788.125L682.5 788.125C682.5 730.135 729.51 683.125 787.5 683.125L787.5 681.125L787.5 679.125C727.301 679.125 678.5 727.926 678.5 788.125L680.5 788.125ZM787.5 681.125L787.5 683.125L788.5 683.125L788.5 681.125L788.5 679.125L787.5 679.125L787.5 681.125ZM788.5 681.125L786.5 681.125L786.5 713.125L788.5 713.125L790.5 713.125L790.5 681.125L788.5 681.125ZM788.5 713.125L788.5 711.125L787.5 711.125L787.5 713.125L787.5 715.125L788.5 715.125L788.5 713.125ZM787.5 713.125L787.5 711.125C744.974 711.125 710.5 745.599 710.5 788.125L712.5 788.125L714.5 788.125C714.5 747.808 747.183 715.125 787.5 715.125L787.5 713.125ZM712.5 788.125L710.5 788.125L710.5 789.125L712.5 789.125L714.5 789.125L714.5 788.125L712.5 788.125ZM712.5 789.125L712.5 787.125L680.5 787.125L680.5 789.125L680.5 791.125L712.5 791.125L712.5 789.125ZM680.5 789.125L682.5 789.125L682.5 788.125L680.5 788.125L678.5 788.125L678.5 789.125L680.5 789.125ZM605.5 681.125L605.5 683.125C648.026 683.125 682.5 648.651 682.5 606.125L680.5 606.125L678.5 606.125C678.5 646.442 645.817 679.125 605.5 679.125L605.5 681.125ZM680.5 606.125L682.5 606.125L682.5 605.125L680.5 605.125L678.5 605.125L678.5 606.125L680.5 606.125ZM680.5 605.125L680.5 607.125L712.5 607.125L712.5 605.125L712.5 603.125L680.5 603.125L680.5 605.125ZM712.5 605.125L710.5 605.125L710.5 606.125L712.5 606.125L714.5 606.125L714.5 605.125L712.5 605.125ZM712.5 606.125L710.5 606.125C710.5 664.115 663.49 711.125 605.5 711.125L605.5 713.125L605.5 715.125C665.699 715.125 714.5 666.324 714.5 606.125L712.5 606.125ZM605.5 713.125L605.5 711.125L604.5 711.125L604.5 713.125L604.5 715.125L605.5 715.125L605.5 713.125ZM604.5 713.125L606.5 713.125L606.5 681.125L604.5 681.125L602.5 681.125L602.5 713.125L604.5 713.125ZM604.5 681.125L604.5 683.125L605.5 683.125L605.5 681.125L605.5 679.125L604.5 679.125L604.5 681.125Z" fill="#DBEAFE" mask="url(#path-26-inside-6_381_3596)"/>
</g>
<rect x="605.5" y="788.125" width="182" height="182" rx="30" transform="rotate(-90 605.5 788.125)" stroke="#DBEAFE" stroke-width="2"/>
<g clip-path="url(#clip6_381_3596)">
<mask id="path-30-inside-7_381_3596" fill="white">
<path d="M804.5 880.125C863.594 880.125 911.5 928.031 911.5 987.125V988.125H879.5V987.125C879.5 945.704 845.921 912.125 804.5 912.125H803.5V880.125H804.5ZM911.5 805.125C911.5 846.546 945.079 880.125 986.5 880.125H987.5V912.125H986.5C927.406 912.125 879.5 864.219 879.5 805.125V804.125H911.5V805.125Z"/>
</mask>
<path d="M911.5 988.125V990.125H913.5V988.125H911.5ZM879.5 988.125H877.5V990.125H879.5V988.125ZM803.5 912.125H801.5V914.125H803.5V912.125ZM803.5 880.125V878.125H801.5V880.125H803.5ZM911.5 805.125H913.5H911.5ZM986.5 880.125V882.125V880.125ZM987.5 880.125H989.5V878.125H987.5V880.125ZM987.5 912.125V914.125H989.5V912.125H987.5ZM986.5 912.125V914.125V912.125ZM879.5 805.125H881.5H879.5ZM879.5 804.125V802.125H877.5V804.125H879.5ZM911.5 804.125H913.5V802.125H911.5V804.125ZM804.5 880.125V882.125C862.49 882.125 909.5 929.135 909.5 987.125H911.5H913.5C913.5 926.926 864.699 878.125 804.5 878.125V880.125ZM911.5 987.125H909.5V988.125H911.5H913.5V987.125H911.5ZM911.5 988.125V986.125H879.5V988.125V990.125H911.5V988.125ZM879.5 988.125H881.5V987.125H879.5H877.5V988.125H879.5ZM879.5 987.125H881.5C881.5 944.599 847.026 910.125 804.5 910.125V912.125V914.125C844.817 914.125 877.5 946.808 877.5 987.125H879.5ZM804.5 912.125V910.125H803.5V912.125V914.125H804.5V912.125ZM803.5 912.125H805.5V880.125H803.5H801.5V912.125H803.5ZM803.5 880.125V882.125H804.5V880.125V878.125H803.5V880.125ZM911.5 805.125H909.5C909.5 847.651 943.974 882.125 986.5 882.125V880.125V878.125C946.183 878.125 913.5 845.442 913.5 805.125H911.5ZM986.5 880.125V882.125H987.5V880.125V878.125H986.5V880.125ZM987.5 880.125H985.5V912.125H987.5H989.5V880.125H987.5ZM987.5 912.125V910.125H986.5V912.125V914.125H987.5V912.125ZM986.5 912.125V910.125C928.51 910.125 881.5 863.115 881.5 805.125H879.5H877.5C877.5 865.324 926.301 914.125 986.5 914.125V912.125ZM879.5 805.125H881.5V804.125H879.5H877.5V805.125H879.5ZM879.5 804.125V806.125H911.5V804.125V802.125H879.5V804.125ZM911.5 804.125H909.5V805.125H911.5H913.5V804.125H911.5Z" fill="#DBEAFE" mask="url(#path-30-inside-7_381_3596)"/>
</g>
<rect x="804.5" y="805.125" width="182" height="182" rx="30" stroke="#DBEAFE" stroke-width="2"/>
<g clip-path="url(#clip7_381_3596)">
<mask id="path-34-inside-8_381_3596" fill="white">
<path d="M314.5 805.125C314.5 864.219 266.594 912.125 207.5 912.125L206.5 912.125L206.5 880.125L207.5 880.125C248.921 880.125 282.5 846.546 282.5 805.125L282.5 804.125L314.5 804.125L314.5 805.125ZM389.5 912.125C348.079 912.125 314.5 945.704 314.5 987.125L314.5 988.125L282.5 988.125L282.5 987.125C282.5 928.031 330.406 880.125 389.5 880.125L390.5 880.125L390.5 912.125L389.5 912.125Z"/>
</mask>
<path d="M207.5 912.125L207.5 910.125L207.5 912.125ZM206.5 912.125L204.5 912.125L204.5 914.125L206.5 914.125L206.5 912.125ZM206.5 880.125L206.5 878.125L204.5 878.125L204.5 880.125L206.5 880.125ZM207.5 880.125L207.5 878.125L207.5 880.125ZM282.5 804.125L282.5 802.125L280.5 802.125L280.5 804.125L282.5 804.125ZM314.5 804.125L316.5 804.125L316.5 802.125L314.5 802.125L314.5 804.125ZM389.5 912.125L389.5 914.125L389.5 912.125ZM314.5 987.125L312.5 987.125L314.5 987.125ZM314.5 988.125L314.5 990.125L316.5 990.125L316.5 988.125L314.5 988.125ZM282.5 988.125L280.5 988.125L280.5 990.125L282.5 990.125L282.5 988.125ZM282.5 987.125L280.5 987.125L282.5 987.125ZM389.5 880.125L389.5 882.125L389.5 880.125ZM390.5 880.125L392.5 880.125L392.5 878.125L390.5 878.125L390.5 880.125ZM390.5 912.125L390.5 914.125L392.5 914.125L392.5 912.125L390.5 912.125ZM314.5 805.125L312.5 805.125C312.5 863.115 265.49 910.125 207.5 910.125L207.5 912.125L207.5 914.125C267.699 914.125 316.5 865.324 316.5 805.125L314.5 805.125ZM207.5 912.125L207.5 910.125L206.5 910.125L206.5 912.125L206.5 914.125L207.5 914.125L207.5 912.125ZM206.5 912.125L208.5 912.125L208.5 880.125L206.5 880.125L204.5 880.125L204.5 912.125L206.5 912.125ZM206.5 880.125L206.5 882.125L207.5 882.125L207.5 880.125L207.5 878.125L206.5 878.125L206.5 880.125ZM207.5 880.125L207.5 882.125C250.026 882.125 284.5 847.651 284.5 805.125L282.5 805.125L280.5 805.125C280.5 845.442 247.817 878.125 207.5 878.125L207.5 880.125ZM282.5 805.125L284.5 805.125L284.5 804.125L282.5 804.125L280.5 804.125L280.5 805.125L282.5 805.125ZM282.5 804.125L282.5 806.125L314.5 806.125L314.5 804.125L314.5 802.125L282.5 802.125L282.5 804.125ZM314.5 804.125L312.5 804.125L312.5 805.125L314.5 805.125L316.5 805.125L316.5 804.125L314.5 804.125ZM389.5 912.125L389.5 910.125C346.974 910.125 312.5 944.599 312.5 987.125L314.5 987.125L316.5 987.125C316.5 946.808 349.183 914.125 389.5 914.125L389.5 912.125ZM314.5 987.125L312.5 987.125L312.5 988.125L314.5 988.125L316.5 988.125L316.5 987.125L314.5 987.125ZM314.5 988.125L314.5 986.125L282.5 986.125L282.5 988.125L282.5 990.125L314.5 990.125L314.5 988.125ZM282.5 988.125L284.5 988.125L284.5 987.125L282.5 987.125L280.5 987.125L280.5 988.125L282.5 988.125ZM282.5 987.125L284.5 987.125C284.5 929.135 331.51 882.125 389.5 882.125L389.5 880.125L389.5 878.125C329.301 878.125 280.5 926.926 280.5 987.125L282.5 987.125ZM389.5 880.125L389.5 882.125L390.5 882.125L390.5 880.125L390.5 878.125L389.5 878.125L389.5 880.125ZM390.5 880.125L388.5 880.125L388.5 912.125L390.5 912.125L392.5 912.125L392.5 880.125L390.5 880.125ZM390.5 912.125L390.5 910.125L389.5 910.125L389.5 912.125L389.5 914.125L390.5 914.125L390.5 912.125Z" fill="#DBEAFE" mask="url(#path-34-inside-8_381_3596)"/>
</g>
<rect x="389.5" y="805.125" width="182" height="182" rx="30" transform="rotate(90 389.5 805.125)" stroke="#DBEAFE" stroke-width="2"/>
<g clip-path="url(#clip8_381_3596)">
<mask id="path-38-inside-9_381_3596" fill="white">
<path d="M8.5 282.625C67.5945 282.625 115.5 330.531 115.5 389.625V390.625H83.5V389.625C83.5 348.204 49.9214 314.625 8.5 314.625H7.5V282.625H8.5ZM115.5 207.625C115.5 249.046 149.079 282.625 190.5 282.625H191.5V314.625H190.5C131.406 314.625 83.5 266.719 83.5 207.625V206.625H115.5V207.625Z"/>
</mask>
<path d="M115.5 390.625V392.625H117.5V390.625H115.5ZM83.5 390.625H81.5V392.625H83.5V390.625ZM7.5 314.625H5.5V316.625H7.5V314.625ZM7.5 282.625V280.625H5.5V282.625H7.5ZM115.5 207.625H117.5H115.5ZM190.5 282.625V284.625V282.625ZM191.5 282.625H193.5V280.625H191.5V282.625ZM191.5 314.625V316.625H193.5V314.625H191.5ZM190.5 314.625V316.625V314.625ZM83.5 207.625H85.5H83.5ZM83.5 206.625V204.625H81.5V206.625H83.5ZM115.5 206.625H117.5V204.625H115.5V206.625ZM8.5 282.625V284.625C66.4899 284.625 113.5 331.635 113.5 389.625H115.5H117.5C117.5 329.426 68.699 280.625 8.5 280.625V282.625ZM115.5 389.625H113.5V390.625H115.5H117.5V389.625H115.5ZM115.5 390.625V388.625H83.5V390.625V392.625H115.5V390.625ZM83.5 390.625H85.5V389.625H83.5H81.5V390.625H83.5ZM83.5 389.625H85.5C85.5 347.099 51.0259 312.625 8.5 312.625V314.625V316.625C48.8168 316.625 81.5 349.308 81.5 389.625H83.5ZM8.5 314.625V312.625H7.5V314.625V316.625H8.5V314.625ZM7.5 314.625H9.5V282.625H7.5H5.5V314.625H7.5ZM7.5 282.625V284.625H8.5V282.625V280.625H7.5V282.625ZM115.5 207.625H113.5C113.5 250.151 147.974 284.625 190.5 284.625V282.625V280.625C150.183 280.625 117.5 247.942 117.5 207.625H115.5ZM190.5 282.625V284.625H191.5V282.625V280.625H190.5V282.625ZM191.5 282.625H189.5V314.625H191.5H193.5V282.625H191.5ZM191.5 314.625V312.625H190.5V314.625V316.625H191.5V314.625ZM190.5 314.625V312.625C132.51 312.625 85.5 265.615 85.5 207.625H83.5H81.5C81.5 267.824 130.301 316.625 190.5 316.625V314.625ZM83.5 207.625H85.5V206.625H83.5H81.5V207.625H83.5ZM83.5 206.625V208.625H115.5V206.625V204.625H83.5V206.625ZM115.5 206.625H113.5V207.625H115.5H117.5V206.625H115.5Z" fill="#DBEAFE" mask="url(#path-38-inside-9_381_3596)"/>
</g>
<rect x="8.5" y="207.625" width="182" height="182" rx="30" stroke="#DBEAFE" stroke-width="2"/>
<g clip-path="url(#clip9_381_3596)">
<mask id="path-42-inside-10_381_3596" fill="white">
<path d="M206.5 512.875L206.5 480.875L390.5 480.875L390.5 512.875L206.5 512.875Z"/>
</mask>
<path d="M206.5 512.875L204.5 512.875L204.5 514.875L206.5 514.875L206.5 512.875ZM206.5 480.875L206.5 478.875L204.5 478.875L204.5 480.875L206.5 480.875ZM390.5 480.875L392.5 480.875L392.5 478.875L390.5 478.875L390.5 480.875ZM390.5 512.875L390.5 514.875L392.5 514.875L392.5 512.875L390.5 512.875ZM206.5 512.875L208.5 512.875L208.5 480.875L206.5 480.875L204.5 480.875L204.5 512.875L206.5 512.875ZM206.5 480.875L206.5 482.875L390.5 482.875L390.5 480.875L390.5 478.875L206.5 478.875L206.5 480.875ZM390.5 480.875L388.5 480.875L388.5 512.875L390.5 512.875L392.5 512.875L392.5 480.875L390.5 480.875ZM390.5 512.875L390.5 510.875L206.5 510.875L206.5 512.875L206.5 514.875L390.5 514.875L390.5 512.875Z" fill="#DBEAFE" mask="url(#path-42-inside-10_381_3596)"/>
</g>
<rect x="207.5" y="406.875" width="182" height="182" rx="30" stroke="#DBEAFE" stroke-width="2"/>
<rect x="605.5" y="207.625" width="182" height="182" rx="30" stroke="#DBEAFE" stroke-width="2"/>
<circle cx="696.5" cy="297.875" r="60.8464" stroke="#DBEAFE" stroke-width="2"/>
<path d="M696.5 267.596L715.197 297.875L696.5 328.155L677.803 297.875L696.5 267.596Z" stroke="#DBEAFE" stroke-width="2"/>
<g clip-path="url(#clip10_381_3596)">
<mask id="path-49-inside-11_381_3596" fill="white">
<path d="M911.5 8.625C911.5 37.8384 899.791 64.3161 880.812 83.625H988.5V115.625H880.812C899.791 134.934 911.5 161.412 911.5 190.625V191.625H879.5V190.625C879.5 149.204 845.921 115.625 804.5 115.625H803.5V83.625H804.5C845.921 83.625 879.5 50.0464 879.5 8.625V7.625H911.5V8.625Z"/>
</mask>
<path d="M911.5 8.625H909.5H911.5ZM880.812 83.625L879.386 82.223L876.042 85.625H880.812V83.625ZM988.5 83.625H990.5V81.625H988.5V83.625ZM988.5 115.625V117.625H990.5V115.625H988.5ZM880.812 115.625V113.625H876.042L879.386 117.027L880.812 115.625ZM911.5 191.625V193.625H913.5V191.625H911.5ZM879.5 191.625H877.5V193.625H879.5V191.625ZM803.5 115.625H801.5V117.625H803.5V115.625ZM803.5 83.625V81.625H801.5V83.625H803.5ZM804.5 83.625V85.625V83.625ZM879.5 8.625H877.5H879.5ZM879.5 7.625V5.625H877.5V7.625H879.5ZM911.5 7.625H913.5V5.625H911.5V7.625ZM911.5 8.625H909.5C909.5 37.293 898.012 63.2729 879.386 82.223L880.812 83.625L882.239 85.027C901.57 65.3593 913.5 38.3839 913.5 8.625H911.5ZM880.812 83.625V85.625H988.5V83.625V81.625H880.812V83.625ZM988.5 83.625H986.5V115.625H988.5H990.5V83.625H988.5ZM988.5 115.625V113.625H880.812V115.625V117.625H988.5V115.625ZM880.812 115.625L879.386 117.027C898.012 135.977 909.5 161.957 909.5 190.625H911.5H913.5C913.5 160.866 901.57 133.891 882.239 114.223L880.812 115.625ZM911.5 190.625H909.5V191.625H911.5H913.5V190.625H911.5ZM911.5 191.625V189.625H879.5V191.625V193.625H911.5V191.625ZM879.5 191.625H881.5V190.625H879.5H877.5V191.625H879.5ZM879.5 190.625H881.5C881.5 148.099 847.026 113.625 804.5 113.625V115.625V117.625C844.817 117.625 877.5 150.308 877.5 190.625H879.5ZM804.5 115.625V113.625H803.5V115.625V117.625H804.5V115.625ZM803.5 115.625H805.5V83.625H803.5H801.5V115.625H803.5ZM803.5 83.625V85.625H804.5V83.625V81.625H803.5V83.625ZM804.5 83.625V85.625C847.026 85.625 881.5 51.1509 881.5 8.625H879.5H877.5C877.5 48.9418 844.817 81.625 804.5 81.625V83.625ZM879.5 8.625H881.5V7.625H879.5H877.5V8.625H879.5ZM879.5 7.625V9.625H911.5V7.625V5.625H879.5V7.625ZM911.5 7.625H909.5V8.625H911.5H913.5V7.625H911.5Z" fill="#DBEAFE" mask="url(#path-49-inside-11_381_3596)"/>
</g>
<rect x="804.5" y="8.625" width="182" height="182" rx="30" stroke="#DBEAFE" stroke-width="2"/>
<g clip-path="url(#clip11_381_3596)">
<mask id="path-53-inside-12_381_3596" fill="white">
<path d="M513.5 206.875V390.625H481.5V283.57C462.217 302.718 435.765 314.625 406.5 314.625H401.5V282.625H406.5C447.751 282.625 481.5 248.468 481.5 206.875H513.5Z"/>
</mask>
<path d="M513.5 206.875H515.5V204.875H513.5V206.875ZM513.5 390.625V392.625H515.5V390.625H513.5ZM481.5 390.625H479.5V392.625H481.5V390.625ZM481.5 283.57H483.5V278.766L480.091 282.151L481.5 283.57ZM406.5 314.625V316.625H406.5L406.5 314.625ZM401.5 314.625H399.5V316.625H401.5V314.625ZM401.5 282.625V280.625H399.5V282.625H401.5ZM406.5 282.625V284.625H406.5L406.5 282.625ZM481.5 206.875V204.875H479.5V206.875H481.5ZM513.5 206.875H511.5V390.625H513.5H515.5V206.875H513.5ZM513.5 390.625V388.625H481.5V390.625V392.625H513.5V390.625ZM481.5 390.625H483.5V283.57H481.5H479.5V390.625H481.5ZM481.5 283.57L480.091 282.151C461.163 300.947 435.209 312.625 406.5 312.625L406.5 314.625L406.5 316.625C436.32 316.625 463.272 304.49 482.909 284.989L481.5 283.57ZM406.5 314.625V312.625H401.5V314.625V316.625H406.5V314.625ZM401.5 314.625H403.5V282.625H401.5H399.5V314.625H401.5ZM401.5 282.625V284.625H406.5V282.625V280.625H401.5V282.625ZM406.5 282.625L406.5 284.625C448.876 284.625 483.5 249.552 483.5 206.875H481.5H479.5C479.5 247.383 446.627 280.625 406.5 280.625L406.5 282.625ZM481.5 206.875V208.875H513.5V206.875V204.875H481.5V206.875Z" fill="#DBEAFE" mask="url(#path-53-inside-12_381_3596)"/>
</g>
<rect x="406.5" y="207.625" width="182" height="182" rx="30" stroke="#DBEAFE" stroke-width="2"/>
<g clip-path="url(#clip12_381_3596)">
<mask id="path-57-inside-13_381_3596" fill="white">
<path d="M879.5 589.125C879.5 559.912 891.209 533.434 910.188 514.125L802.5 514.125L802.5 482.125L910.188 482.125C891.209 462.816 879.5 436.338 879.5 407.125L879.5 406.125L911.5 406.125L911.5 407.125C911.5 448.546 945.079 482.125 986.5 482.125L987.5 482.125L987.5 514.125L986.5 514.125L985.53 514.131C944.556 514.65 911.5 548.027 911.5 589.125L911.5 590.125L879.5 590.125L879.5 589.125Z"/>
</mask>
<path d="M879.5 589.125L877.5 589.125V589.125L879.5 589.125ZM910.188 514.125L911.614 515.527L914.958 512.125L910.188 512.125L910.188 514.125ZM802.5 514.125L800.5 514.125L800.5 516.125L802.5 516.125L802.5 514.125ZM802.5 482.125L802.5 480.125L800.5 480.125L800.5 482.125L802.5 482.125ZM910.188 482.125L910.188 484.125L914.958 484.125L911.614 480.723L910.188 482.125ZM879.5 406.125L879.5 404.125L877.5 404.125L877.5 406.125L879.5 406.125ZM911.5 406.125L913.5 406.125L913.5 404.125L911.5 404.125L911.5 406.125ZM911.5 407.125L913.5 407.125L911.5 407.125ZM986.5 482.125L986.5 484.125L986.5 482.125ZM987.5 482.125L989.5 482.125L989.5 480.125L987.5 480.125L987.5 482.125ZM987.5 514.125L987.5 516.125L989.5 516.125L989.5 514.125L987.5 514.125ZM986.5 514.125L986.5 512.125L986.488 512.125L986.5 514.125ZM985.53 514.131L985.518 512.131L985.505 512.131L985.53 514.131ZM911.5 589.125L909.5 589.125V589.125L911.5 589.125ZM911.5 590.125L911.5 592.125L913.5 592.125L913.5 590.125L911.5 590.125ZM879.5 590.125L877.5 590.125L877.5 592.125L879.5 592.125L879.5 590.125ZM879.5 589.125L881.5 589.125C881.5 560.457 892.988 534.477 911.614 515.527L910.188 514.125L908.761 512.723C889.43 532.391 877.5 559.366 877.5 589.125L879.5 589.125ZM910.188 514.125L910.188 512.125L802.5 512.125L802.5 514.125L802.5 516.125L910.188 516.125L910.188 514.125ZM802.5 514.125L804.5 514.125L804.5 482.125L802.5 482.125L800.5 482.125L800.5 514.125L802.5 514.125ZM802.5 482.125L802.5 484.125L910.188 484.125L910.188 482.125L910.188 480.125L802.5 480.125L802.5 482.125ZM910.188 482.125L911.614 480.723C892.988 461.773 881.5 435.793 881.5 407.125L879.5 407.125L877.5 407.125C877.5 436.884 889.43 463.859 908.761 483.527L910.188 482.125ZM879.5 407.125L881.5 407.125L881.5 406.125L879.5 406.125L877.5 406.125L877.5 407.125L879.5 407.125ZM879.5 406.125L879.5 408.125L911.5 408.125L911.5 406.125L911.5 404.125L879.5 404.125L879.5 406.125ZM911.5 406.125L909.5 406.125L909.5 407.125L911.5 407.125L913.5 407.125L913.5 406.125L911.5 406.125ZM911.5 407.125L909.5 407.125C909.5 449.651 943.974 484.125 986.5 484.125L986.5 482.125L986.5 480.125C946.183 480.125 913.5 447.442 913.5 407.125L911.5 407.125ZM986.5 482.125L986.5 484.125L987.5 484.125L987.5 482.125L987.5 480.125L986.5 480.125L986.5 482.125ZM987.5 482.125L985.5 482.125L985.5 514.125L987.5 514.125L989.5 514.125L989.5 482.125L987.5 482.125ZM987.5 514.125L987.5 512.125L986.5 512.125L986.5 514.125L986.5 516.125L987.5 516.125L987.5 514.125ZM986.5 514.125L986.488 512.125L985.518 512.131L985.53 514.131L985.542 516.131L986.512 516.125L986.5 514.125ZM985.53 514.131L985.505 512.131C943.437 512.664 909.5 546.931 909.5 589.125L911.5 589.125L913.5 589.125C913.5 549.123 945.674 516.636 985.556 516.131L985.53 514.131ZM911.5 589.125L909.5 589.125L909.5 590.125L911.5 590.125L913.5 590.125L913.5 589.125L911.5 589.125ZM911.5 590.125L911.5 588.125L879.5 588.125L879.5 590.125L879.5 592.125L911.5 592.125L911.5 590.125ZM879.5 590.125L881.5 590.125L881.5 589.125L879.5 589.125L877.5 589.125L877.5 590.125L879.5 590.125Z" fill="#DBEAFE" mask="url(#path-57-inside-13_381_3596)"/>
</g>
<rect x="986.5" y="589.125" width="182" height="182" rx="30" transform="rotate(-180 986.5 589.125)" stroke="#DBEAFE" stroke-width="2"/>
<g clip-path="url(#clip13_381_3596)">
<mask id="path-61-inside-14_381_3596" fill="white">
<path d="M83.5 589.125C83.5 548.027 50.4442 514.65 9.46973 514.131L8.50001 514.125L7.50001 514.125L7.50001 482.125L8.50001 482.125C49.9214 482.125 83.5 448.546 83.5 407.125L83.5 406.125L115.5 406.125L115.5 407.125C115.5 448.546 149.079 482.125 190.5 482.125L191.5 482.125L191.5 514.125L190.5 514.125L189.53 514.131C148.556 514.65 115.5 548.027 115.5 589.125L115.5 590.125L83.5 590.125L83.5 589.125ZM99.5 532.814C108.224 518.745 120.12 506.849 134.189 498.125C120.12 489.401 108.224 477.505 99.5 463.437C90.7757 477.505 78.8802 489.401 64.8115 498.125C78.8804 506.849 90.7757 518.745 99.5 532.814Z"/>
</mask>
<path d="M83.5 589.125L85.5 589.125L85.5 589.125L83.5 589.125ZM9.46973 514.131L9.49508 512.131L9.48182 512.131L9.46973 514.131ZM8.50001 514.125L8.51209 512.125L8.50001 512.125L8.50001 514.125ZM7.50001 514.125L5.50001 514.125L5.50001 516.125L7.50001 516.125L7.50001 514.125ZM7.50001 482.125L7.50001 480.125L5.50001 480.125L5.50001 482.125L7.50001 482.125ZM8.50001 482.125L8.50001 480.125L8.50001 482.125ZM83.5 407.125L85.5 407.125L83.5 407.125ZM83.5 406.125L83.5 404.125L81.5 404.125L81.5 406.125L83.5 406.125ZM115.5 406.125L117.5 406.125L117.5 404.125L115.5 404.125L115.5 406.125ZM115.5 407.125L117.5 407.125L115.5 407.125ZM190.5 482.125L190.5 484.125L190.5 482.125ZM191.5 482.125L193.5 482.125L193.5 480.125L191.5 480.125L191.5 482.125ZM191.5 514.125L191.5 516.125L193.5 516.125L193.5 514.125L191.5 514.125ZM190.5 514.125L190.5 512.125L190.488 512.125L190.5 514.125ZM189.53 514.131L189.518 512.131L189.505 512.131L189.53 514.131ZM115.5 589.125L113.5 589.125L113.5 589.125L115.5 589.125ZM115.5 590.125L115.5 592.125L117.5 592.125L117.5 590.125L115.5 590.125ZM83.5 590.125L81.5 590.125L81.5 592.125L83.5 592.125L83.5 590.125ZM99.5 532.814L97.8003 533.868L99.5 536.609L101.2 533.868L99.5 532.814ZM134.189 498.125L135.243 499.825L137.984 498.125L135.243 496.425L134.189 498.125ZM99.5 463.437L101.2 462.382L99.5 459.642L97.8003 462.382L99.5 463.437ZM64.8115 498.125L63.7575 496.425L61.0166 498.125L63.7575 499.825L64.8115 498.125ZM83.5 589.125L85.5 589.125C85.5 546.931 51.5627 512.664 9.49508 512.131L9.46973 514.131L9.44439 516.131C49.3256 516.636 81.5 549.123 81.5 589.125L83.5 589.125ZM9.46973 514.131L9.48182 512.131L8.51209 512.125L8.50001 514.125L8.48792 516.125L9.45765 516.131L9.46973 514.131ZM8.50001 514.125L8.50001 512.125L7.50001 512.125L7.50001 514.125L7.50001 516.125L8.50001 516.125L8.50001 514.125ZM7.50001 514.125L9.50001 514.125L9.50001 482.125L7.50001 482.125L5.50001 482.125L5.50001 514.125L7.50001 514.125ZM7.50001 482.125L7.50001 484.125L8.50001 484.125L8.50001 482.125L8.50001 480.125L7.50001 480.125L7.50001 482.125ZM8.50001 482.125L8.50001 484.125C51.0259 484.125 85.5 449.651 85.5 407.125L83.5 407.125L81.5 407.125C81.5 447.442 48.8168 480.125 8.50001 480.125L8.50001 482.125ZM83.5 407.125L85.5 407.125L85.5 406.125L83.5 406.125L81.5 406.125L81.5 407.125L83.5 407.125ZM83.5 406.125L83.5 408.125L115.5 408.125L115.5 406.125L115.5 404.125L83.5 404.125L83.5 406.125ZM115.5 406.125L113.5 406.125L113.5 407.125L115.5 407.125L117.5 407.125L117.5 406.125L115.5 406.125ZM115.5 407.125L113.5 407.125C113.5 449.651 147.974 484.125 190.5 484.125L190.5 482.125L190.5 480.125C150.183 480.125 117.5 447.442 117.5 407.125L115.5 407.125ZM190.5 482.125L190.5 484.125L191.5 484.125L191.5 482.125L191.5 480.125L190.5 480.125L190.5 482.125ZM191.5 482.125L189.5 482.125L189.5 514.125L191.5 514.125L193.5 514.125L193.5 482.125L191.5 482.125ZM191.5 514.125L191.5 512.125L190.5 512.125L190.5 514.125L190.5 516.125L191.5 516.125L191.5 514.125ZM190.5 514.125L190.488 512.125L189.518 512.131L189.53 514.131L189.542 516.131L190.512 516.125L190.5 514.125ZM189.53 514.131L189.505 512.131C147.437 512.664 113.5 546.931 113.5 589.125L115.5 589.125L117.5 589.125C117.5 549.123 149.674 516.636 189.556 516.131L189.53 514.131ZM115.5 589.125L113.5 589.125L113.5 590.125L115.5 590.125L117.5 590.125L117.5 589.125L115.5 589.125ZM115.5 590.125L115.5 588.125L83.5 588.125L83.5 590.125L83.5 592.125L115.5 592.125L115.5 590.125ZM83.5 590.125L85.5 590.125L85.5 589.125L83.5 589.125L81.5 589.125L81.5 590.125L83.5 590.125ZM99.5 532.814L101.2 533.868C109.762 520.061 121.436 508.387 135.243 499.825L134.189 498.125L133.135 496.425C118.804 505.312 106.687 517.429 97.8003 531.76L99.5 532.814ZM134.189 498.125L135.243 496.425C121.437 487.863 109.762 476.189 101.2 462.382L99.5 463.437L97.8003 464.491C106.687 478.822 118.804 490.938 133.135 499.825L134.189 498.125ZM99.5 463.437L97.8003 462.382C89.2386 476.189 77.564 487.864 63.7575 496.425L64.8115 498.125L65.8656 499.825C80.1964 490.938 92.3129 478.821 101.2 464.491L99.5 463.437ZM64.8115 498.125L63.7575 499.825C77.5642 508.387 89.2385 520.062 97.8003 533.868L99.5 532.814L101.2 531.76C92.3128 517.429 80.1966 505.312 65.8656 496.425L64.8115 498.125Z" fill="#DBEAFE" mask="url(#path-61-inside-14_381_3596)"/>
</g>
<rect x="190.5" y="589.125" width="182" height="182" rx="30" transform="rotate(-180 190.5 589.125)" stroke="#DBEAFE" stroke-width="2"/>
<g clip-path="url(#clip14_381_3596)">
<mask id="path-65-inside-15_381_3596" fill="white">
<path d="M314.5 207.625C314.5 236.838 302.791 263.316 283.812 282.625H391.5V314.625H206.5V282.625H207.5C248.921 282.625 282.5 249.046 282.5 207.625V206.625H314.5V207.625Z"/>
</mask>
<path d="M314.5 207.625H312.5H314.5ZM283.812 282.625L282.386 281.223L279.042 284.625H283.812V282.625ZM391.5 282.625H393.5V280.625H391.5V282.625ZM391.5 314.625V316.625H393.5V314.625H391.5ZM206.5 314.625H204.5V316.625H206.5V314.625ZM206.5 282.625V280.625H204.5V282.625H206.5ZM207.5 282.625V284.625V282.625ZM282.5 207.625H280.5H282.5ZM282.5 206.625V204.625H280.5V206.625H282.5ZM314.5 206.625H316.5V204.625H314.5V206.625ZM314.5 207.625H312.5C312.5 236.293 301.012 262.273 282.386 281.223L283.812 282.625L285.239 284.027C304.57 264.359 316.5 237.384 316.5 207.625H314.5ZM283.812 282.625V284.625H391.5V282.625V280.625H283.812V282.625ZM391.5 282.625H389.5V314.625H391.5H393.5V282.625H391.5ZM391.5 314.625V312.625H206.5V314.625V316.625H391.5V314.625ZM206.5 314.625H208.5V282.625H206.5H204.5V314.625H206.5ZM206.5 282.625V284.625H207.5V282.625V280.625H206.5V282.625ZM207.5 282.625V284.625C250.026 284.625 284.5 250.151 284.5 207.625H282.5H280.5C280.5 247.942 247.817 280.625 207.5 280.625V282.625ZM282.5 207.625H284.5V206.625H282.5H280.5V207.625H282.5ZM282.5 206.625V208.625H314.5V206.625V204.625H282.5V206.625ZM314.5 206.625H312.5V207.625H314.5H316.5V206.625H314.5Z" fill="#DBEAFE" mask="url(#path-65-inside-15_381_3596)"/>
</g>
<rect x="207.5" y="207.625" width="182" height="182" rx="30" stroke="#DBEAFE" stroke-width="2"/>
<g clip-path="url(#clip15_381_3596)">
<mask id="path-69-inside-16_381_3596" fill="white">
<path d="M513.5 606.125C513.5 635.338 501.791 661.816 482.812 681.125H590.5V713.125H482.812C501.791 732.434 513.5 758.912 513.5 788.125V789.125H481.5V788.125C481.5 746.704 447.921 713.125 406.5 713.125H405.5V681.125H406.5C447.921 681.125 481.5 647.546 481.5 606.125V605.125H513.5V606.125Z"/>
</mask>
<path d="M513.5 606.125H511.5H513.5ZM482.812 681.125L481.386 679.723L478.042 683.125H482.812V681.125ZM590.5 681.125H592.5V679.125H590.5V681.125ZM590.5 713.125V715.125H592.5V713.125H590.5ZM482.812 713.125V711.125H478.042L481.386 714.527L482.812 713.125ZM513.5 789.125V791.125H515.5V789.125H513.5ZM481.5 789.125H479.5V791.125H481.5V789.125ZM405.5 713.125H403.5V715.125H405.5V713.125ZM405.5 681.125V679.125H403.5V681.125H405.5ZM406.5 681.125V683.125V681.125ZM481.5 606.125H479.5H481.5ZM481.5 605.125V603.125H479.5V605.125H481.5ZM513.5 605.125H515.5V603.125H513.5V605.125ZM513.5 606.125H511.5C511.5 634.793 500.012 660.773 481.386 679.723L482.812 681.125L484.239 682.527C503.57 662.859 515.5 635.884 515.5 606.125H513.5ZM482.812 681.125V683.125H590.5V681.125V679.125H482.812V681.125ZM590.5 681.125H588.5V713.125H590.5H592.5V681.125H590.5ZM590.5 713.125V711.125H482.812V713.125V715.125H590.5V713.125ZM482.812 713.125L481.386 714.527C500.012 733.477 511.5 759.457 511.5 788.125H513.5H515.5C515.5 758.366 503.57 731.391 484.239 711.723L482.812 713.125ZM513.5 788.125H511.5V789.125H513.5H515.5V788.125H513.5ZM513.5 789.125V787.125H481.5V789.125V791.125H513.5V789.125ZM481.5 789.125H483.5V788.125H481.5H479.5V789.125H481.5ZM481.5 788.125H483.5C483.5 745.599 449.026 711.125 406.5 711.125V713.125V715.125C446.817 715.125 479.5 747.808 479.5 788.125H481.5ZM406.5 713.125V711.125H405.5V713.125V715.125H406.5V713.125ZM405.5 713.125H407.5V681.125H405.5H403.5V713.125H405.5ZM405.5 681.125V683.125H406.5V681.125V679.125H405.5V681.125ZM406.5 681.125V683.125C449.026 683.125 483.5 648.651 483.5 606.125H481.5H479.5C479.5 646.442 446.817 679.125 406.5 679.125V681.125ZM481.5 606.125H483.5V605.125H481.5H479.5V606.125H481.5ZM481.5 605.125V607.125H513.5V605.125V603.125H481.5V605.125ZM513.5 605.125H511.5V606.125H513.5H515.5V605.125H513.5Z" fill="#DBEAFE" mask="url(#path-69-inside-16_381_3596)"/>
</g>
<rect x="406.5" y="606.125" width="182" height="182" rx="30" stroke="#DBEAFE" stroke-width="2"/>
<g clip-path="url(#clip16_381_3596)">
<mask id="path-73-inside-17_381_3596" fill="white">
<path d="M115.5 606.125C115.5 635.338 103.791 661.816 84.8125 681.125H192.5V713.125H84.8125C103.791 732.434 115.5 758.912 115.5 788.125V789.125H83.5V788.125C83.5 746.704 49.9214 713.125 8.5 713.125H7.5V681.125H8.5C49.9214 681.125 83.5 647.546 83.5 606.125V605.125H115.5V606.125Z"/>
</mask>
<path d="M115.5 606.125H113.5H115.5ZM84.8125 681.125L83.3861 679.723L80.0423 683.125H84.8125V681.125ZM192.5 681.125H194.5V679.125H192.5V681.125ZM192.5 713.125V715.125H194.5V713.125H192.5ZM84.8125 713.125V711.125H80.0423L83.3861 714.527L84.8125 713.125ZM115.5 789.125V791.125H117.5V789.125H115.5ZM83.5 789.125H81.5V791.125H83.5V789.125ZM7.5 713.125H5.5V715.125H7.5V713.125ZM7.5 681.125V679.125H5.5V681.125H7.5ZM8.5 681.125V683.125V681.125ZM83.5 606.125H81.5H83.5ZM83.5 605.125V603.125H81.5V605.125H83.5ZM115.5 605.125H117.5V603.125H115.5V605.125ZM115.5 606.125H113.5C113.5 634.793 102.012 660.773 83.3861 679.723L84.8125 681.125L86.2389 682.527C105.57 662.859 117.5 635.884 117.5 606.125H115.5ZM84.8125 681.125V683.125H192.5V681.125V679.125H84.8125V681.125ZM192.5 681.125H190.5V713.125H192.5H194.5V681.125H192.5ZM192.5 713.125V711.125H84.8125V713.125V715.125H192.5V713.125ZM84.8125 713.125L83.3861 714.527C102.012 733.477 113.5 759.457 113.5 788.125H115.5H117.5C117.5 758.366 105.57 731.391 86.2389 711.723L84.8125 713.125ZM115.5 788.125H113.5V789.125H115.5H117.5V788.125H115.5ZM115.5 789.125V787.125H83.5V789.125V791.125H115.5V789.125ZM83.5 789.125H85.5V788.125H83.5H81.5V789.125H83.5ZM83.5 788.125H85.5C85.5 745.599 51.0259 711.125 8.5 711.125V713.125V715.125C48.8168 715.125 81.5 747.808 81.5 788.125H83.5ZM8.5 713.125V711.125H7.5V713.125V715.125H8.5V713.125ZM7.5 713.125H9.5V681.125H7.5H5.5V713.125H7.5ZM7.5 681.125V683.125H8.5V681.125V679.125H7.5V681.125ZM8.5 681.125V683.125C51.0259 683.125 85.5 648.651 85.5 606.125H83.5H81.5C81.5 646.442 48.8168 679.125 8.5 679.125V681.125ZM83.5 606.125H85.5V605.125H83.5H81.5V606.125H83.5ZM83.5 605.125V607.125H115.5V605.125V603.125H83.5V605.125ZM115.5 605.125H113.5V606.125H115.5H117.5V605.125H115.5Z" fill="#DBEAFE" mask="url(#path-73-inside-17_381_3596)"/>
</g>
<rect x="8.5" y="606.125" width="182" height="182" rx="30" stroke="#DBEAFE" stroke-width="2"/>
<g clip-path="url(#clip17_381_3596)">
<mask id="path-77-inside-18_381_3596" fill="white">
<path d="M115.5 805.375C115.5 834.588 103.791 861.066 84.8125 880.375H192.5V912.375H84.8125C103.791 931.684 115.5 958.162 115.5 987.375V988.375H83.5V987.375C83.5 945.954 49.9214 912.375 8.5 912.375H7.5V880.375H8.5C49.9214 880.375 83.5 846.796 83.5 805.375V804.375H115.5V805.375Z"/>
</mask>
<path d="M115.5 805.375H113.5H115.5ZM84.8125 880.375L83.3861 878.973L80.0423 882.375H84.8125V880.375ZM192.5 880.375H194.5V878.375H192.5V880.375ZM192.5 912.375V914.375H194.5V912.375H192.5ZM84.8125 912.375V910.375H80.0423L83.3861 913.777L84.8125 912.375ZM115.5 988.375V990.375H117.5V988.375H115.5ZM83.5 988.375H81.5V990.375H83.5V988.375ZM7.5 912.375H5.5V914.375H7.5V912.375ZM7.5 880.375V878.375H5.5V880.375H7.5ZM8.5 880.375V882.375V880.375ZM83.5 805.375H81.5H83.5ZM83.5 804.375V802.375H81.5V804.375H83.5ZM115.5 804.375H117.5V802.375H115.5V804.375ZM115.5 805.375H113.5C113.5 834.043 102.012 860.023 83.3861 878.973L84.8125 880.375L86.2389 881.777C105.57 862.109 117.5 835.134 117.5 805.375H115.5ZM84.8125 880.375V882.375H192.5V880.375V878.375H84.8125V880.375ZM192.5 880.375H190.5V912.375H192.5H194.5V880.375H192.5ZM192.5 912.375V910.375H84.8125V912.375V914.375H192.5V912.375ZM84.8125 912.375L83.3861 913.777C102.012 932.727 113.5 958.707 113.5 987.375H115.5H117.5C117.5 957.616 105.57 930.641 86.2389 910.973L84.8125 912.375ZM115.5 987.375H113.5V988.375H115.5H117.5V987.375H115.5ZM115.5 988.375V986.375H83.5V988.375V990.375H115.5V988.375ZM83.5 988.375H85.5V987.375H83.5H81.5V988.375H83.5ZM83.5 987.375H85.5C85.5 944.849 51.0259 910.375 8.5 910.375V912.375V914.375C48.8168 914.375 81.5 947.058 81.5 987.375H83.5ZM8.5 912.375V910.375H7.5V912.375V914.375H8.5V912.375ZM7.5 912.375H9.5V880.375H7.5H5.5V912.375H7.5ZM7.5 880.375V882.375H8.5V880.375V878.375H7.5V880.375ZM8.5 880.375V882.375C51.0259 882.375 85.5 847.901 85.5 805.375H83.5H81.5C81.5 845.692 48.8168 878.375 8.5 878.375V880.375ZM83.5 805.375H85.5V804.375H83.5H81.5V805.375H83.5ZM83.5 804.375V806.375H115.5V804.375V802.375H83.5V804.375ZM115.5 804.375H113.5V805.375H115.5H117.5V804.375H115.5Z" fill="#DBEAFE" mask="url(#path-77-inside-18_381_3596)"/>
</g>
<rect x="8.5" y="805.375" width="182" height="182" rx="30" stroke="#DBEAFE" stroke-width="2"/>
<g clip-path="url(#clip18_381_3596)">
<mask id="path-81-inside-19_381_3596" fill="white">
<path d="M513.5 406.125V407.125C513.5 448.223 546.556 481.6 587.53 482.119L588.5 482.125H589.5V514.125H588.5C547.079 514.125 513.5 547.704 513.5 589.125V590.125H481.5V589.125C481.5 550.692 501.763 516.992 532.188 498.125C518.12 489.401 506.224 477.505 497.5 463.436C478.633 493.861 444.933 514.125 406.5 514.125H405.5V482.125H406.5C447.921 482.125 481.5 448.546 481.5 407.125V406.125H513.5Z"/>
</mask>
<path d="M513.5 406.125H515.5V404.125H513.5V406.125ZM513.5 407.125H515.5H513.5ZM587.53 482.119L587.505 484.119L587.518 484.119L587.53 482.119ZM588.5 482.125L588.488 484.125H588.5V482.125ZM589.5 482.125H591.5V480.125H589.5V482.125ZM589.5 514.125V516.125H591.5V514.125H589.5ZM588.5 514.125V512.125V514.125ZM513.5 589.125H515.5H513.5ZM513.5 590.125V592.125H515.5V590.125H513.5ZM481.5 590.125H479.5V592.125H481.5V590.125ZM481.5 589.125H483.5H481.5ZM532.188 498.125L533.243 499.825L535.983 498.125L533.243 496.425L532.188 498.125ZM497.5 463.436L499.2 462.382L497.5 459.641L495.8 462.382L497.5 463.436ZM406.5 514.125V516.125V514.125ZM405.5 514.125H403.5V516.125H405.5V514.125ZM405.5 482.125V480.125H403.5V482.125H405.5ZM406.5 482.125V484.125V482.125ZM481.5 407.125H479.5H481.5ZM481.5 406.125V404.125H479.5V406.125H481.5ZM513.5 406.125H511.5V407.125H513.5H515.5V406.125H513.5ZM513.5 407.125H511.5C511.5 449.319 545.437 483.586 587.505 484.119L587.53 482.119L587.556 480.119C547.674 479.614 515.5 447.127 515.5 407.125H513.5ZM587.53 482.119L587.518 484.119L588.488 484.125L588.5 482.125L588.512 480.125L587.542 480.119L587.53 482.119ZM588.5 482.125V484.125H589.5V482.125V480.125H588.5V482.125ZM589.5 482.125H587.5V514.125H589.5H591.5V482.125H589.5ZM589.5 514.125V512.125H588.5V514.125V516.125H589.5V514.125ZM588.5 514.125V512.125C545.974 512.125 511.5 546.599 511.5 589.125H513.5H515.5C515.5 548.808 548.183 516.125 588.5 516.125V514.125ZM513.5 589.125H511.5V590.125H513.5H515.5V589.125H513.5ZM513.5 590.125V588.125H481.5V590.125V592.125H513.5V590.125ZM481.5 590.125H483.5V589.125H481.5H479.5V590.125H481.5ZM481.5 589.125H483.5C483.5 551.413 503.381 518.343 533.243 499.825L532.188 498.125L531.134 496.425C500.146 515.642 479.5 549.971 479.5 589.125H481.5ZM532.188 498.125L533.243 496.425C519.436 487.863 507.762 476.188 499.2 462.382L497.5 463.436L495.8 464.49C504.687 478.821 516.803 490.938 531.134 499.825L532.188 498.125ZM497.5 463.436L495.8 462.382C477.282 492.244 444.213 512.125 406.5 512.125V514.125V516.125C445.654 516.125 479.983 495.479 499.2 464.49L497.5 463.436ZM406.5 514.125V512.125H405.5V514.125V516.125H406.5V514.125ZM405.5 514.125H407.5V482.125H405.5H403.5V514.125H405.5ZM405.5 482.125V484.125H406.5V482.125V480.125H405.5V482.125ZM406.5 482.125V484.125C449.026 484.125 483.5 449.651 483.5 407.125H481.5H479.5C479.5 447.442 446.817 480.125 406.5 480.125V482.125ZM481.5 407.125H483.5V406.125H481.5H479.5V407.125H481.5ZM481.5 406.125V408.125H513.5V406.125V404.125H481.5V406.125Z" fill="#DBEAFE" mask="url(#path-81-inside-19_381_3596)"/>
</g>
<rect x="406.5" y="407.125" width="182" height="182" rx="30" stroke="#DBEAFE" stroke-width="2"/>
<g clip-path="url(#clip19_381_3596)">
<mask id="path-85-inside-20_381_3596" fill="white">
<path d="M481.5 987.375C481.5 948.942 501.764 915.242 532.189 896.375C501.764 877.508 481.5 843.808 481.5 805.375L481.5 804.375L513.5 804.375L513.5 805.375C513.5 846.796 547.079 880.375 588.5 880.375L589.5 880.375L589.5 912.375L588.5 912.375L587.53 912.381C546.556 912.9 513.5 946.277 513.5 987.375L513.5 988.375L481.5 988.375L481.5 987.375Z"/>
</mask>
<path d="M481.5 987.375L479.5 987.375V987.375L481.5 987.375ZM532.189 896.375L533.243 898.075L535.984 896.375L533.243 894.675L532.189 896.375ZM481.5 804.375L481.5 802.375L479.5 802.375L479.5 804.375L481.5 804.375ZM513.5 804.375L515.5 804.375L515.5 802.375L513.5 802.375L513.5 804.375ZM588.5 880.375L588.5 882.375L588.5 880.375ZM589.5 880.375L591.5 880.375L591.5 878.375L589.5 878.375L589.5 880.375ZM589.5 912.375L589.5 914.375L591.5 914.375L591.5 912.375L589.5 912.375ZM588.5 912.375L588.5 910.375L588.488 910.375L588.5 912.375ZM587.53 912.381L587.518 910.381L587.505 910.381L587.53 912.381ZM513.5 987.375L511.5 987.375V987.375L513.5 987.375ZM513.5 988.375L513.5 990.375L515.5 990.375L515.5 988.375L513.5 988.375ZM481.5 988.375L479.5 988.375L479.5 990.375L481.5 990.375L481.5 988.375ZM481.5 987.375L483.5 987.375C483.5 949.662 503.381 916.593 533.243 898.075L532.189 896.375L531.135 894.675C500.146 913.892 479.5 948.221 479.5 987.375L481.5 987.375ZM532.189 896.375L533.243 894.675C503.381 876.157 483.5 843.088 483.5 805.375L481.5 805.375L479.5 805.375C479.5 844.529 500.146 878.858 531.135 898.075L532.189 896.375ZM481.5 805.375L483.5 805.375L483.5 804.375L481.5 804.375L479.5 804.375L479.5 805.375L481.5 805.375ZM481.5 804.375L481.5 806.375L513.5 806.375L513.5 804.375L513.5 802.375L481.5 802.375L481.5 804.375ZM513.5 804.375L511.5 804.375L511.5 805.375L513.5 805.375L515.5 805.375L515.5 804.375L513.5 804.375ZM513.5 805.375L511.5 805.375C511.5 847.901 545.974 882.375 588.5 882.375L588.5 880.375L588.5 878.375C548.183 878.375 515.5 845.692 515.5 805.375L513.5 805.375ZM588.5 880.375L588.5 882.375L589.5 882.375L589.5 880.375L589.5 878.375L588.5 878.375L588.5 880.375ZM589.5 880.375L587.5 880.375L587.5 912.375L589.5 912.375L591.5 912.375L591.5 880.375L589.5 880.375ZM589.5 912.375L589.5 910.375L588.5 910.375L588.5 912.375L588.5 914.375L589.5 914.375L589.5 912.375ZM588.5 912.375L588.488 910.375L587.518 910.381L587.53 912.381L587.542 914.381L588.512 914.375L588.5 912.375ZM587.53 912.381L587.505 910.381C545.437 910.914 511.5 945.181 511.5 987.375L513.5 987.375L515.5 987.375C515.5 947.373 547.674 914.886 587.556 914.381L587.53 912.381ZM513.5 987.375L511.5 987.375L511.5 988.375L513.5 988.375L515.5 988.375L515.5 987.375L513.5 987.375ZM513.5 988.375L513.5 986.375L481.5 986.375L481.5 988.375L481.5 990.375L513.5 990.375L513.5 988.375ZM481.5 988.375L483.5 988.375L483.5 987.375L481.5 987.375L479.5 987.375L479.5 988.375L481.5 988.375Z" fill="#DBEAFE" mask="url(#path-85-inside-20_381_3596)"/>
</g>
<rect x="588.5" y="987.375" width="182" height="182" rx="30" transform="rotate(-180 588.5 987.375)" stroke="#DBEAFE" stroke-width="2"/>
<g clip-path="url(#clip20_381_3596)">
<mask id="path-89-inside-21_381_3596" fill="white">
<path d="M879.5 389.875C879.5 348.777 846.444 315.4 805.47 314.881L804.5 314.875L803.5 314.875L803.5 282.875L804.5 282.875C845.921 282.875 879.5 249.296 879.5 207.875L879.5 206.875L911.5 206.875L911.5 207.875C911.5 249.296 945.079 282.875 986.5 282.875L987.5 282.875L987.5 314.875L986.5 314.875L985.53 314.881C944.556 315.4 911.5 348.777 911.5 389.875L911.5 390.875L879.5 390.875L879.5 389.875ZM895.5 333.564C904.224 319.495 916.12 307.599 930.189 298.875C916.12 290.151 904.224 278.255 895.5 264.187C886.776 278.255 874.88 290.151 860.812 298.875C874.88 307.599 886.776 319.495 895.5 333.564Z"/>
</mask>
<path d="M879.5 389.875L881.5 389.875V389.875L879.5 389.875ZM805.47 314.881L805.495 312.881L805.482 312.881L805.47 314.881ZM804.5 314.875L804.512 312.875L804.5 312.875L804.5 314.875ZM803.5 314.875L801.5 314.875L801.5 316.875L803.5 316.875L803.5 314.875ZM803.5 282.875L803.5 280.875L801.5 280.875L801.5 282.875L803.5 282.875ZM804.5 282.875L804.5 280.875L804.5 282.875ZM879.5 207.875L881.5 207.875L879.5 207.875ZM879.5 206.875L879.5 204.875L877.5 204.875L877.5 206.875L879.5 206.875ZM911.5 206.875L913.5 206.875L913.5 204.875L911.5 204.875L911.5 206.875ZM911.5 207.875L913.5 207.875L911.5 207.875ZM986.5 282.875L986.5 284.875L986.5 282.875ZM987.5 282.875L989.5 282.875L989.5 280.875L987.5 280.875L987.5 282.875ZM987.5 314.875L987.5 316.875L989.5 316.875L989.5 314.875L987.5 314.875ZM986.5 314.875L986.5 312.875L986.488 312.875L986.5 314.875ZM985.53 314.881L985.518 312.881L985.505 312.881L985.53 314.881ZM911.5 389.875L909.5 389.875V389.875L911.5 389.875ZM911.5 390.875L911.5 392.875L913.5 392.875L913.5 390.875L911.5 390.875ZM879.5 390.875L877.5 390.875L877.5 392.875L879.5 392.875L879.5 390.875ZM895.5 333.564L893.8 334.618L895.5 337.359L897.2 334.618L895.5 333.564ZM930.189 298.875L931.243 300.575L933.984 298.875L931.243 297.175L930.189 298.875ZM895.5 264.187L897.2 263.132L895.5 260.392L893.8 263.132L895.5 264.187ZM860.812 298.875L859.758 297.175L857.017 298.875L859.757 300.575L860.812 298.875ZM879.5 389.875L881.5 389.875C881.5 347.681 847.563 313.414 805.495 312.881L805.47 314.881L805.444 316.881C845.326 317.386 877.5 349.873 877.5 389.875L879.5 389.875ZM805.47 314.881L805.482 312.881L804.512 312.875L804.5 314.875L804.488 316.875L805.458 316.881L805.47 314.881ZM804.5 314.875L804.5 312.875L803.5 312.875L803.5 314.875L803.5 316.875L804.5 316.875L804.5 314.875ZM803.5 314.875L805.5 314.875L805.5 282.875L803.5 282.875L801.5 282.875L801.5 314.875L803.5 314.875ZM803.5 282.875L803.5 284.875L804.5 284.875L804.5 282.875L804.5 280.875L803.5 280.875L803.5 282.875ZM804.5 282.875L804.5 284.875C847.026 284.875 881.5 250.401 881.5 207.875L879.5 207.875L877.5 207.875C877.5 248.192 844.817 280.875 804.5 280.875L804.5 282.875ZM879.5 207.875L881.5 207.875L881.5 206.875L879.5 206.875L877.5 206.875L877.5 207.875L879.5 207.875ZM879.5 206.875L879.5 208.875L911.5 208.875L911.5 206.875L911.5 204.875L879.5 204.875L879.5 206.875ZM911.5 206.875L909.5 206.875L909.5 207.875L911.5 207.875L913.5 207.875L913.5 206.875L911.5 206.875ZM911.5 207.875L909.5 207.875C909.5 250.401 943.974 284.875 986.5 284.875L986.5 282.875L986.5 280.875C946.183 280.875 913.5 248.192 913.5 207.875L911.5 207.875ZM986.5 282.875L986.5 284.875L987.5 284.875L987.5 282.875L987.5 280.875L986.5 280.875L986.5 282.875ZM987.5 282.875L985.5 282.875L985.5 314.875L987.5 314.875L989.5 314.875L989.5 282.875L987.5 282.875ZM987.5 314.875L987.5 312.875L986.5 312.875L986.5 314.875L986.5 316.875L987.5 316.875L987.5 314.875ZM986.5 314.875L986.488 312.875L985.518 312.881L985.53 314.881L985.542 316.881L986.512 316.875L986.5 314.875ZM985.53 314.881L985.505 312.881C943.437 313.414 909.5 347.681 909.5 389.875L911.5 389.875L913.5 389.875C913.5 349.873 945.674 317.386 985.556 316.881L985.53 314.881ZM911.5 389.875L909.5 389.875L909.5 390.875L911.5 390.875L913.5 390.875L913.5 389.875L911.5 389.875ZM911.5 390.875L911.5 388.875L879.5 388.875L879.5 390.875L879.5 392.875L911.5 392.875L911.5 390.875ZM879.5 390.875L881.5 390.875L881.5 389.875L879.5 389.875L877.5 389.875L877.5 390.875L879.5 390.875ZM895.5 333.564L897.2 334.618C905.762 320.811 917.436 309.137 931.243 300.575L930.189 298.875L929.135 297.175C914.804 306.062 902.687 318.179 893.8 332.51L895.5 333.564ZM930.189 298.875L931.243 297.175C917.437 288.613 905.762 276.939 897.2 263.132L895.5 264.187L893.8 265.241C902.687 279.572 914.804 291.688 929.135 300.575L930.189 298.875ZM895.5 264.187L893.8 263.132C885.239 276.939 873.564 288.614 859.758 297.175L860.812 298.875L861.866 300.575C876.196 291.688 888.313 279.571 897.2 265.241L895.5 264.187ZM860.812 298.875L859.757 300.575C873.564 309.137 885.238 320.812 893.8 334.618L895.5 333.564L897.2 332.51C888.313 318.179 876.197 306.062 861.866 297.175L860.812 298.875Z" fill="#DBEAFE" mask="url(#path-89-inside-21_381_3596)"/>
</g>
<rect x="986.5" y="389.875" width="182" height="182" rx="30" transform="rotate(-180 986.5 389.875)" stroke="#DBEAFE" stroke-width="2"/>
<g clip-path="url(#clip21_381_3596)">
<mask id="path-93-inside-22_381_3596" fill="white">
<path d="M680.5 589.125C680.5 548.027 647.444 514.65 606.47 514.131L605.5 514.125L604.5 514.125L604.5 482.125L605.5 482.125C646.921 482.125 680.5 448.546 680.5 407.125L680.5 406.125L712.5 406.125L712.5 407.125C712.5 448.546 746.079 482.125 787.5 482.125L788.5 482.125L788.5 514.125L787.5 514.125L786.53 514.131C745.556 514.65 712.5 548.027 712.5 589.125L712.5 590.125L680.5 590.125L680.5 589.125ZM696.5 532.814C705.224 518.745 717.12 506.849 731.189 498.125C717.12 489.401 705.224 477.505 696.5 463.437C687.776 477.505 675.88 489.401 661.812 498.125C675.88 506.849 687.776 518.745 696.5 532.814Z"/>
</mask>
<path d="M680.5 589.125L682.5 589.125V589.125L680.5 589.125ZM606.47 514.131L606.495 512.131L606.482 512.131L606.47 514.131ZM605.5 514.125L605.512 512.125L605.5 512.125L605.5 514.125ZM604.5 514.125L602.5 514.125L602.5 516.125L604.5 516.125L604.5 514.125ZM604.5 482.125L604.5 480.125L602.5 480.125L602.5 482.125L604.5 482.125ZM605.5 482.125L605.5 480.125L605.5 482.125ZM680.5 407.125L682.5 407.125L680.5 407.125ZM680.5 406.125L680.5 404.125L678.5 404.125L678.5 406.125L680.5 406.125ZM712.5 406.125L714.5 406.125L714.5 404.125L712.5 404.125L712.5 406.125ZM712.5 407.125L714.5 407.125L712.5 407.125ZM788.5 482.125L790.5 482.125L790.5 480.125L788.5 480.125L788.5 482.125ZM788.5 514.125L788.5 516.125L790.5 516.125L790.5 514.125L788.5 514.125ZM787.5 514.125L787.5 512.125L787.488 512.125L787.5 514.125ZM786.53 514.131L786.518 512.131L786.505 512.131L786.53 514.131ZM712.5 589.125L710.5 589.125V589.125L712.5 589.125ZM712.5 590.125L712.5 592.125L714.5 592.125L714.5 590.125L712.5 590.125ZM680.5 590.125L678.5 590.125L678.5 592.125L680.5 592.125L680.5 590.125ZM696.5 532.814L694.8 533.868L696.5 536.609L698.2 533.868L696.5 532.814ZM731.189 498.125L732.243 499.825L734.984 498.125L732.243 496.425L731.189 498.125ZM696.5 463.437L698.2 462.382L696.5 459.642L694.8 462.382L696.5 463.437ZM661.812 498.125L660.758 496.425L658.017 498.125L660.757 499.825L661.812 498.125ZM680.5 589.125L682.5 589.125C682.5 546.931 648.563 512.664 606.495 512.131L606.47 514.131L606.444 516.131C646.326 516.636 678.5 549.123 678.5 589.125L680.5 589.125ZM606.47 514.131L606.482 512.131L605.512 512.125L605.5 514.125L605.488 516.125L606.458 516.131L606.47 514.131ZM605.5 514.125L605.5 512.125L604.5 512.125L604.5 514.125L604.5 516.125L605.5 516.125L605.5 514.125ZM604.5 514.125L606.5 514.125L606.5 482.125L604.5 482.125L602.5 482.125L602.5 514.125L604.5 514.125ZM604.5 482.125L604.5 484.125L605.5 484.125L605.5 482.125L605.5 480.125L604.5 480.125L604.5 482.125ZM605.5 482.125L605.5 484.125C648.026 484.125 682.5 449.651 682.5 407.125L680.5 407.125L678.5 407.125C678.5 447.442 645.817 480.125 605.5 480.125L605.5 482.125ZM680.5 407.125L682.5 407.125L682.5 406.125L680.5 406.125L678.5 406.125L678.5 407.125L680.5 407.125ZM680.5 406.125L680.5 408.125L712.5 408.125L712.5 406.125L712.5 404.125L680.5 404.125L680.5 406.125ZM712.5 406.125L710.5 406.125L710.5 407.125L712.5 407.125L714.5 407.125L714.5 406.125L712.5 406.125ZM712.5 407.125L710.5 407.125C710.5 449.651 744.974 484.125 787.5 484.125L787.5 482.125L787.5 480.125C747.183 480.125 714.5 447.442 714.5 407.125L712.5 407.125ZM787.5 482.125L787.5 484.125L788.5 484.125L788.5 482.125L788.5 480.125L787.5 480.125L787.5 482.125ZM788.5 482.125L786.5 482.125L786.5 514.125L788.5 514.125L790.5 514.125L790.5 482.125L788.5 482.125ZM788.5 514.125L788.5 512.125L787.5 512.125L787.5 514.125L787.5 516.125L788.5 516.125L788.5 514.125ZM787.5 514.125L787.488 512.125L786.518 512.131L786.53 514.131L786.542 516.131L787.512 516.125L787.5 514.125ZM786.53 514.131L786.505 512.131C744.437 512.664 710.5 546.931 710.5 589.125L712.5 589.125L714.5 589.125C714.5 549.123 746.674 516.636 786.556 516.131L786.53 514.131ZM712.5 589.125L710.5 589.125L710.5 590.125L712.5 590.125L714.5 590.125L714.5 589.125L712.5 589.125ZM712.5 590.125L712.5 588.125L680.5 588.125L680.5 590.125L680.5 592.125L712.5 592.125L712.5 590.125ZM680.5 590.125L682.5 590.125L682.5 589.125L680.5 589.125L678.5 589.125L678.5 590.125L680.5 590.125ZM696.5 532.814L698.2 533.868C706.762 520.061 718.436 508.387 732.243 499.825L731.189 498.125L730.135 496.425C715.804 505.312 703.687 517.429 694.8 531.76L696.5 532.814ZM731.189 498.125L732.243 496.425C718.437 487.863 706.762 476.189 698.2 462.382L696.5 463.437L694.8 464.491C703.687 478.822 715.804 490.938 730.135 499.825L731.189 498.125ZM696.5 463.437L694.8 462.382C686.239 476.189 674.564 487.864 660.758 496.425L661.812 498.125L662.866 499.825C677.196 490.938 689.313 478.821 698.2 464.491L696.5 463.437ZM661.812 498.125L660.757 499.825C674.564 508.387 686.238 520.062 694.8 533.868L696.5 532.814L698.2 531.76C689.313 517.429 677.197 505.312 662.866 496.425L661.812 498.125Z" fill="#DBEAFE" mask="url(#path-93-inside-22_381_3596)"/>
</g>
<rect x="787.5" y="589.125" width="182" height="182" rx="30" transform="rotate(-180 787.5 589.125)" stroke="#DBEAFE" stroke-width="2"/>
<g clip-path="url(#clip22_381_3596)">
<mask id="path-97-inside-23_381_3596" fill="white">
<path d="M605.5 880.125C664.594 880.125 712.5 928.031 712.5 987.125V988.125H680.5V987.125C680.5 945.704 646.921 912.125 605.5 912.125H604.5V880.125H605.5ZM712.5 805.125C712.5 846.546 746.079 880.125 787.5 880.125H788.5V912.125H787.5C728.406 912.125 680.5 864.219 680.5 805.125V804.125H712.5V805.125Z"/>
</mask>
<path d="M712.5 988.125V990.125H714.5V988.125H712.5ZM680.5 988.125H678.5V990.125H680.5V988.125ZM604.5 912.125H602.5V914.125H604.5V912.125ZM604.5 880.125V878.125H602.5V880.125H604.5ZM712.5 805.125H714.5H712.5ZM787.5 880.125V882.125V880.125ZM788.5 880.125H790.5V878.125H788.5V880.125ZM788.5 912.125V914.125H790.5V912.125H788.5ZM787.5 912.125V914.125V912.125ZM680.5 805.125H682.5H680.5ZM680.5 804.125V802.125H678.5V804.125H680.5ZM712.5 804.125H714.5V802.125H712.5V804.125ZM605.5 880.125V882.125C663.49 882.125 710.5 929.135 710.5 987.125H712.5H714.5C714.5 926.926 665.699 878.125 605.5 878.125V880.125ZM712.5 987.125H710.5V988.125H712.5H714.5V987.125H712.5ZM712.5 988.125V986.125H680.5V988.125V990.125H712.5V988.125ZM680.5 988.125H682.5V987.125H680.5H678.5V988.125H680.5ZM680.5 987.125H682.5C682.5 944.599 648.026 910.125 605.5 910.125V912.125V914.125C645.817 914.125 678.5 946.808 678.5 987.125H680.5ZM605.5 912.125V910.125H604.5V912.125V914.125H605.5V912.125ZM604.5 912.125H606.5V880.125H604.5H602.5V912.125H604.5ZM604.5 880.125V882.125H605.5V880.125V878.125H604.5V880.125ZM712.5 805.125H710.5C710.5 847.651 744.974 882.125 787.5 882.125V880.125V878.125C747.183 878.125 714.5 845.442 714.5 805.125H712.5ZM787.5 880.125V882.125H788.5V880.125V878.125H787.5V880.125ZM788.5 880.125H786.5V912.125H788.5H790.5V880.125H788.5ZM788.5 912.125V910.125H787.5V912.125V914.125H788.5V912.125ZM787.5 912.125V910.125C729.51 910.125 682.5 863.115 682.5 805.125H680.5H678.5C678.5 865.324 727.301 914.125 787.5 914.125V912.125ZM680.5 805.125H682.5V804.125H680.5H678.5V805.125H680.5ZM680.5 804.125V806.125H712.5V804.125V802.125H680.5V804.125ZM712.5 804.125H710.5V805.125H712.5H714.5V804.125H712.5Z" fill="#DBEAFE" mask="url(#path-97-inside-23_381_3596)"/>
</g>
<rect x="605.5" y="805.125" width="182" height="182" rx="30" stroke="#DBEAFE" stroke-width="2"/>
<defs>
<clipPath id="clip0_381_3596">
<rect x="7.5" y="7.625" width="184" height="184" rx="31" fill="white"/>
</clipPath>
<clipPath id="clip1_381_3596">
<rect x="206.5" y="7.625" width="184" height="184" rx="31" fill="white"/>
</clipPath>
<clipPath id="clip2_381_3596">
<rect x="405.5" y="7.625" width="184" height="184" rx="31" fill="white"/>
</clipPath>
<clipPath id="clip3_381_3596">
<rect x="604.5" y="7.625" width="184" height="184" rx="31" fill="white"/>
</clipPath>
<clipPath id="clip4_381_3596">
<rect x="803.5" y="605.125" width="184" height="184" rx="31" fill="white"/>
</clipPath>
<clipPath id="clip5_381_3596">
<rect x="604.5" y="789.125" width="184" height="184" rx="31" transform="rotate(-90 604.5 789.125)" fill="white"/>
</clipPath>
<clipPath id="clip6_381_3596">
<rect x="803.5" y="804.125" width="184" height="184" rx="31" fill="white"/>
</clipPath>
<clipPath id="clip7_381_3596">
<rect x="390.5" y="804.125" width="184" height="184" rx="31" transform="rotate(90 390.5 804.125)" fill="white"/>
</clipPath>
<clipPath id="clip8_381_3596">
<rect x="7.5" y="206.625" width="184" height="184" rx="31" fill="white"/>
</clipPath>
<clipPath id="clip9_381_3596">
<rect x="206.5" y="405.875" width="184" height="184" rx="31" fill="white"/>
</clipPath>
<clipPath id="clip10_381_3596">
<rect x="803.5" y="7.625" width="184" height="184" rx="31" fill="white"/>
</clipPath>
<clipPath id="clip11_381_3596">
<rect x="405.5" y="206.625" width="184" height="184" rx="31" fill="white"/>
</clipPath>
<clipPath id="clip12_381_3596">
<rect x="987.5" y="590.125" width="184" height="184" rx="31" transform="rotate(-180 987.5 590.125)" fill="white"/>
</clipPath>
<clipPath id="clip13_381_3596">
<rect x="191.5" y="590.125" width="184" height="184" rx="31" transform="rotate(-180 191.5 590.125)" fill="white"/>
</clipPath>
<clipPath id="clip14_381_3596">
<rect x="206.5" y="206.625" width="184" height="184" rx="31" fill="white"/>
</clipPath>
<clipPath id="clip15_381_3596">
<rect x="405.5" y="605.125" width="184" height="184" rx="31" fill="white"/>
</clipPath>
<clipPath id="clip16_381_3596">
<rect x="7.5" y="605.125" width="184" height="184" rx="31" fill="white"/>
</clipPath>
<clipPath id="clip17_381_3596">
<rect x="7.5" y="804.375" width="184" height="184" rx="31" fill="white"/>
</clipPath>
<clipPath id="clip18_381_3596">
<rect x="405.5" y="406.125" width="184" height="184" rx="31" fill="white"/>
</clipPath>
<clipPath id="clip19_381_3596">
<rect x="589.5" y="988.375" width="184" height="184" rx="31" transform="rotate(-180 589.5 988.375)" fill="white"/>
</clipPath>
<clipPath id="clip20_381_3596">
<rect x="987.5" y="390.875" width="184" height="184" rx="31" transform="rotate(-180 987.5 390.875)" fill="white"/>
</clipPath>
<clipPath id="clip21_381_3596">
<rect x="788.5" y="590.125" width="184" height="184" rx="31" transform="rotate(-180 788.5 590.125)" fill="white"/>
</clipPath>
<clipPath id="clip22_381_3596">
<rect x="604.5" y="804.125" width="184" height="184" rx="31" fill="white"/>
</clipPath>
</defs>
</svg>
